{
	"patcher" : 	{
		"fileversion" : 1,
		"appversion" : 		{
			"major" : 7,
			"minor" : 3,
			"revision" : 3,
			"architecture" : "x64",
			"modernui" : 1
		}
,
		"rect" : [ 0.0, 44.0, 1275.0, 753.0 ],
		"bgcolor" : [ 0.0, 0.0, 0.0, 1.0 ],
		"editing_bgcolor" : [ 0.32549, 0.345098, 0.372549, 1.0 ],
		"bglocked" : 0,
		"openinpresentation" : 1,
		"default_fontsize" : 12.0,
		"default_fontface" : 0,
		"default_fontname" : "Arial",
		"gridonopen" : 1,
		"gridsize" : [ 15.0, 15.0 ],
		"gridsnaponopen" : 1,
		"objectsnaponopen" : 1,
		"statusbarvisible" : 2,
		"toolbarvisible" : 0,
		"lefttoolbarpinned" : 0,
		"toptoolbarpinned" : 0,
		"righttoolbarpinned" : 0,
		"bottomtoolbarpinned" : 0,
		"toolbars_unpinned_last_save" : 0,
		"tallnewobj" : 0,
		"boxanimatetime" : 200,
		"enablehscroll" : 1,
		"enablevscroll" : 1,
		"devicewidth" : 0.0,
		"description" : "",
		"digest" : "",
		"tags" : "",
		"style" : "",
		"subpatcher_template" : "",
		"boxes" : [ 			{
				"box" : 				{
					"id" : "obj-54",
					"maxclass" : "scope~",
					"numinlets" : 2,
					"numoutlets" : 0,
					"patching_rect" : [ 409.0, 1047.0, 130.0, 130.0 ],
					"presentation" : 1,
					"presentation_rect" : [ 527.0, 513.0, 130.0, 130.0 ],
					"style" : ""
				}

			}
, 			{
				"box" : 				{
					"id" : "obj-51",
					"linecount" : 4,
					"maxclass" : "comment",
					"numinlets" : 1,
					"numoutlets" : 0,
					"patching_rect" : [ 693.5, 1177.0, 117.0, 60.0 ],
					"presentation" : 1,
					"presentation_linecount" : 3,
					"presentation_rect" : [ 9.0, 717.0, 172.0, 47.0 ],
					"style" : "helpfile_label",
					"text" : "Copyright of Drew Egan for use only with this piece.\nAll rights reserved."
				}

			}
, 			{
				"box" : 				{
					"fontsize" : 16.0,
					"id" : "obj-49",
					"linecount" : 6,
					"maxclass" : "comment",
					"numinlets" : 1,
					"numoutlets" : 0,
					"patching_rect" : [ 1030.0, 967.0, 234.0, 114.0 ],
					"presentation" : 1,
					"presentation_linecount" : 6,
					"presentation_rect" : [ 617.5, 118.0, 282.0, 114.0 ],
					"style" : "",
					"text" : "1 = 1 minute 0 seconds\n2 = 1 minute 30 seconds\n3 = 2 minutes 0 seconds\n4 = 2 minutes 15 seconds\n5 = 2 minutes 30 seconds\n6 = 2 minutes 45 seconds",
					"textcolor" : [ 0.65098, 0.666667, 0.662745, 1.0 ]
				}

			}
, 			{
				"box" : 				{
					"bgcolor" : [ 0.095481, 0.100396, 0.100293, 1.0 ],
					"color" : [ 0.65098, 0.666667, 0.662745, 1.0 ],
					"elementcolor" : [ 0.239216, 0.254902, 0.278431, 1.0 ],
					"id" : "obj-39",
					"maxclass" : "ezdac~",
					"numinlets" : 2,
					"numoutlets" : 0,
					"patching_rect" : [ 1105.0, 158.0, 45.0, 45.0 ],
					"presentation" : 1,
					"presentation_rect" : [ 1072.0, 51.666668, 23.333332, 23.333332 ],
					"style" : ""
				}

			}
, 			{
				"box" : 				{
					"fontsize" : 20.0,
					"id" : "obj-6",
					"maxclass" : "comment",
					"numinlets" : 1,
					"numoutlets" : 0,
					"patching_rect" : [ 91.0, 1005.0, 239.0, 29.0 ],
					"presentation" : 1,
					"presentation_rect" : [ 901.5, 11.000002, 193.833328, 29.0 ],
					"style" : "",
					"text" : "Instructions For Use:",
					"textcolor" : [ 0.65098, 0.666667, 0.662745, 1.0 ]
				}

			}
, 			{
				"box" : 				{
					"fontsize" : 16.0,
					"id" : "obj-3",
					"linecount" : 38,
					"maxclass" : "comment",
					"numinlets" : 1,
					"numoutlets" : 0,
					"patching_rect" : [ 1015.0, 952.0, 234.0, 686.0 ],
					"presentation" : 1,
					"presentation_linecount" : 34,
					"presentation_rect" : [ 901.5, 51.0, 282.0, 614.0 ],
					"style" : "",
					"text" : "1.  Click the on button (      )\n\n2.  Turn the input on the channel(s) that are in use.\n\n3.  The delay controls as follows:  \nD/T = Delay Time (ms)\nV/D = Variable Delay (ms)\nR/T = Release Time (ms)\n\n4.  The reverb controls as follows:\nReverberation (in ms)\n\n5.  The degrade function controls as follows:\nSample Rate \n1 = Normal\n0 = Completely Degraded\nSize \n24 (bit) = Full Dynamic Range\n1 (bit) = No Dynamic Range\n\n6.  The panning function can be controlled manually or it has a auto control that pans variably from left to right at the speed you have set.\n\n7.  Before performance do a check to make sure levels are set correctly and that the audio will not peak.  \n\n8.  Practice with this software is necessary before a performance can take place.",
					"textcolor" : [ 0.65098, 0.666667, 0.662745, 1.0 ]
				}

			}
, 			{
				"box" : 				{
					"bgcolor" : [ 0.086275, 0.309804, 0.52549, 1.0 ],
					"bgcolor2" : [ 0.086275, 0.309804, 0.52549, 1.0 ],
					"bgfillcolor_angle" : 270.0,
					"bgfillcolor_autogradient" : 0.0,
					"bgfillcolor_color" : [ 0.290196, 0.309804, 0.301961, 1.0 ],
					"bgfillcolor_color1" : [ 0.086275, 0.309804, 0.52549, 1.0 ],
					"bgfillcolor_color2" : [ 0.086275, 0.309804, 0.52549, 1.0 ],
					"bgfillcolor_proportion" : 0.39,
					"bgfillcolor_type" : "gradient",
					"gradient" : 1,
					"id" : "obj-22",
					"maxclass" : "message",
					"numinlets" : 2,
					"numoutlets" : 1,
					"outlettype" : [ "" ],
					"patching_rect" : [ 681.5, 1078.0, 37.0, 22.0 ],
					"style" : "",
					"text" : "open",
					"textcolor" : [ 0.0, 0.0, 0.0, 1.0 ]
				}

			}
, 			{
				"box" : 				{
					"id" : "obj-25",
					"maxclass" : "newobj",
					"numinlets" : 2,
					"numoutlets" : 1,
					"outlettype" : [ "signal" ],
					"patching_rect" : [ 672.5, 1128.0, 71.0, 22.0 ],
					"style" : "",
					"text" : "sfrecord~ 2"
				}

			}
, 			{
				"box" : 				{
					"bgcolor" : [ 0.095481, 0.100396, 0.100293, 1.0 ],
					"checkedcolor" : [ 0.784314, 0.145098, 0.023529, 1.0 ],
					"id" : "obj-37",
					"maxclass" : "toggle",
					"numinlets" : 1,
					"numoutlets" : 1,
					"outlettype" : [ "int" ],
					"parameter_enable" : 0,
					"patching_rect" : [ 731.5, 1071.0, 24.0, 24.0 ],
					"presentation" : 1,
					"presentation_rect" : [ 617.5, 280.0, 46.0, 46.0 ],
					"style" : "",
					"uncheckedcolor" : [ 0.32549, 0.345098, 0.372549, 1.0 ]
				}

			}
, 			{
				"box" : 				{
					"id" : "obj-40",
					"maxclass" : "comment",
					"numinlets" : 1,
					"numoutlets" : 0,
					"patching_rect" : [ 678.5, 1162.0, 117.0, 20.0 ],
					"presentation" : 1,
					"presentation_rect" : [ 670.0, 280.0, 117.0, 20.0 ],
					"style" : "helpfile_label",
					"text" : "Elapsed Time (ms)"
				}

			}
, 			{
				"box" : 				{
					"bgcolor" : [ 0.095481, 0.100396, 0.100293, 1.0 ],
					"fontface" : 0,
					"fontname" : "Arial",
					"fontsize" : 13.0,
					"ft1" : 5.0,
					"id" : "obj-44",
					"maxclass" : "number~",
					"mode" : 2,
					"numinlets" : 2,
					"numoutlets" : 2,
					"outlettype" : [ "signal", "float" ],
					"patching_rect" : [ 619.5, 1162.0, 59.0, 23.0 ],
					"presentation" : 1,
					"presentation_rect" : [ 670.0, 302.0, 110.0, 23.0 ],
					"sig" : 0.0,
					"style" : "",
					"textcolor" : [ 0.32549, 0.345098, 0.372549, 1.0 ]
				}

			}
, 			{
				"box" : 				{
					"fontsize" : 20.0,
					"id" : "obj-18",
					"maxclass" : "comment",
					"numinlets" : 1,
					"numoutlets" : 0,
					"patching_rect" : [ 91.0, 1005.0, 239.0, 29.0 ],
					"presentation" : 1,
					"presentation_rect" : [ 617.5, 242.0, 94.999992, 29.0 ],
					"style" : "",
					"text" : "Recorder",
					"textcolor" : [ 0.65098, 0.666667, 0.662745, 1.0 ]
				}

			}
, 			{
				"box" : 				{
					"fontsize" : 20.0,
					"id" : "obj-16",
					"linecount" : 2,
					"maxclass" : "comment",
					"numinlets" : 1,
					"numoutlets" : 0,
					"patching_rect" : [ 76.0, 990.0, 239.0, 51.0 ],
					"presentation" : 1,
					"presentation_rect" : [ 617.5, 11.000002, 259.0, 29.0 ],
					"style" : "",
					"text" : "Random Number Generator",
					"textcolor" : [ 0.65098, 0.666667, 0.662745, 1.0 ]
				}

			}
, 			{
				"box" : 				{
					"id" : "obj-13",
					"maxclass" : "newobj",
					"numinlets" : 2,
					"numoutlets" : 1,
					"outlettype" : [ "int" ],
					"patching_rect" : [ 1564.0, 196.0, 29.5, 22.0 ],
					"style" : "",
					"text" : "+ 1"
				}

			}
, 			{
				"box" : 				{
					"bgcolor" : [ 0.095481, 0.100396, 0.100293, 1.0 ],
					"fontsize" : 36.0,
					"id" : "obj-11",
					"maxclass" : "number",
					"numinlets" : 1,
					"numoutlets" : 2,
					"outlettype" : [ "", "bang" ],
					"parameter_enable" : 0,
					"patching_rect" : [ 1545.333374, 231.0, 81.0, 49.0 ],
					"presentation" : 1,
					"presentation_rect" : [ 688.0, 51.0, 81.0, 49.0 ],
					"style" : "",
					"textcolor" : [ 0.65098, 0.666667, 0.662745, 1.0 ]
				}

			}
, 			{
				"box" : 				{
					"bgcolor" : [ 0.095481, 0.100396, 0.100293, 1.0 ],
					"id" : "obj-5",
					"maxclass" : "button",
					"numinlets" : 1,
					"numoutlets" : 1,
					"outlettype" : [ "bang" ],
					"patching_rect" : [ 1550.666713, 76.000002, 24.0, 24.0 ],
					"presentation" : 1,
					"presentation_rect" : [ 617.5, 46.166664, 58.666668, 58.666668 ],
					"style" : ""
				}

			}
, 			{
				"box" : 				{
					"id" : "obj-2",
					"linecount" : 2,
					"maxclass" : "newobj",
					"numinlets" : 2,
					"numoutlets" : 1,
					"outlettype" : [ "int" ],
					"patching_rect" : [ 1565.333374, 120.0, 41.0, 35.0 ],
					"style" : "",
					"text" : "random 5"
				}

			}
, 			{
				"box" : 				{
					"id" : "obj-171",
					"maxclass" : "message",
					"numinlets" : 2,
					"numoutlets" : 1,
					"outlettype" : [ "" ],
					"patching_rect" : [ 1345.0, 679.0, 29.5, 22.0 ],
					"style" : "",
					"text" : "2"
				}

			}
, 			{
				"box" : 				{
					"id" : "obj-172",
					"maxclass" : "newobj",
					"numinlets" : 5,
					"numoutlets" : 4,
					"outlettype" : [ "int", "", "", "int" ],
					"patching_rect" : [ 1282.0, 719.0, 74.0, 22.0 ],
					"style" : "",
					"text" : "counter 127"
				}

			}
, 			{
				"box" : 				{
					"bgcolor" : [ 0.095481, 0.100396, 0.100293, 1.0 ],
					"htricolor" : [ 1.0, 1.0, 1.0, 1.0 ],
					"id" : "obj-173",
					"maxclass" : "number",
					"numinlets" : 1,
					"numoutlets" : 2,
					"outlettype" : [ "", "bang" ],
					"parameter_enable" : 0,
					"patching_rect" : [ 1345.0, 625.5, 50.0, 22.0 ],
					"presentation" : 1,
					"presentation_rect" : [ 464.5, 524.0, 50.0, 22.0 ],
					"style" : "",
					"textcolor" : [ 0.65098, 0.666667, 0.662745, 1.0 ],
					"tricolor" : [ 0.65098, 0.666667, 0.662745, 1.0 ]
				}

			}
, 			{
				"box" : 				{
					"bgcolor" : [ 0.095481, 0.100396, 0.100293, 1.0 ],
					"checkedcolor" : [ 0.65098, 0.666667, 0.662745, 1.0 ],
					"id" : "obj-174",
					"maxclass" : "toggle",
					"numinlets" : 1,
					"numoutlets" : 1,
					"outlettype" : [ "int" ],
					"parameter_enable" : 0,
					"patching_rect" : [ 1248.0, 623.5, 24.0, 24.0 ],
					"presentation" : 1,
					"presentation_rect" : [ 464.5, 498.0, 24.0, 24.0 ],
					"style" : "",
					"uncheckedcolor" : [ 0.239216, 0.254902, 0.278431, 1.0 ]
				}

			}
, 			{
				"box" : 				{
					"id" : "obj-175",
					"maxclass" : "newobj",
					"numinlets" : 2,
					"numoutlets" : 1,
					"outlettype" : [ "bang" ],
					"patching_rect" : [ 1248.0, 666.5, 58.0, 22.0 ],
					"style" : "",
					"text" : "metro 15"
				}

			}
, 			{
				"box" : 				{
					"id" : "obj-161",
					"maxclass" : "message",
					"numinlets" : 2,
					"numoutlets" : 1,
					"outlettype" : [ "" ],
					"patching_rect" : [ 864.0, 660.0, 29.5, 22.0 ],
					"style" : "",
					"text" : "2"
				}

			}
, 			{
				"box" : 				{
					"id" : "obj-162",
					"maxclass" : "newobj",
					"numinlets" : 5,
					"numoutlets" : 4,
					"outlettype" : [ "int", "", "", "int" ],
					"patching_rect" : [ 801.0, 700.0, 74.0, 22.0 ],
					"style" : "",
					"text" : "counter 127"
				}

			}
, 			{
				"box" : 				{
					"bgcolor" : [ 0.095481, 0.100396, 0.100293, 1.0 ],
					"htricolor" : [ 1.0, 1.0, 1.0, 1.0 ],
					"id" : "obj-163",
					"maxclass" : "number",
					"numinlets" : 1,
					"numoutlets" : 2,
					"outlettype" : [ "", "bang" ],
					"parameter_enable" : 0,
					"patching_rect" : [ 864.0, 606.5, 50.0, 22.0 ],
					"presentation" : 1,
					"presentation_rect" : [ 263.5, 524.0, 50.0, 22.0 ],
					"style" : "",
					"textcolor" : [ 0.65098, 0.666667, 0.662745, 1.0 ],
					"tricolor" : [ 0.65098, 0.666667, 0.662745, 1.0 ]
				}

			}
, 			{
				"box" : 				{
					"bgcolor" : [ 0.095481, 0.100396, 0.100293, 1.0 ],
					"checkedcolor" : [ 0.65098, 0.666667, 0.662745, 1.0 ],
					"id" : "obj-164",
					"maxclass" : "toggle",
					"numinlets" : 1,
					"numoutlets" : 1,
					"outlettype" : [ "int" ],
					"parameter_enable" : 0,
					"patching_rect" : [ 767.0, 604.5, 24.0, 24.0 ],
					"presentation" : 1,
					"presentation_rect" : [ 263.5, 498.0, 24.0, 24.0 ],
					"style" : "",
					"uncheckedcolor" : [ 0.239216, 0.254902, 0.278431, 1.0 ]
				}

			}
, 			{
				"box" : 				{
					"id" : "obj-165",
					"maxclass" : "newobj",
					"numinlets" : 2,
					"numoutlets" : 1,
					"outlettype" : [ "bang" ],
					"patching_rect" : [ 767.0, 647.5, 58.0, 22.0 ],
					"style" : "",
					"text" : "metro 15"
				}

			}
, 			{
				"box" : 				{
					"id" : "obj-160",
					"maxclass" : "message",
					"numinlets" : 2,
					"numoutlets" : 1,
					"outlettype" : [ "" ],
					"patching_rect" : [ 348.0, 660.0, 29.5, 22.0 ],
					"style" : "",
					"text" : "2"
				}

			}
, 			{
				"box" : 				{
					"id" : "obj-158",
					"maxclass" : "newobj",
					"numinlets" : 5,
					"numoutlets" : 4,
					"outlettype" : [ "int", "", "", "int" ],
					"patching_rect" : [ 285.0, 700.0, 74.0, 22.0 ],
					"style" : "",
					"text" : "counter 127"
				}

			}
, 			{
				"box" : 				{
					"bgcolor" : [ 0.095481, 0.100396, 0.100293, 1.0 ],
					"htricolor" : [ 1.0, 1.0, 1.0, 1.0 ],
					"id" : "obj-157",
					"maxclass" : "number",
					"numinlets" : 1,
					"numoutlets" : 2,
					"outlettype" : [ "", "bang" ],
					"parameter_enable" : 0,
					"patching_rect" : [ 348.0, 606.5, 50.0, 22.0 ],
					"presentation" : 1,
					"presentation_rect" : [ 48.5, 524.0, 50.0, 22.0 ],
					"style" : "",
					"textcolor" : [ 0.65098, 0.666667, 0.662745, 1.0 ],
					"tricolor" : [ 0.65098, 0.666667, 0.662745, 1.0 ]
				}

			}
, 			{
				"box" : 				{
					"bgcolor" : [ 0.095481, 0.100396, 0.100293, 1.0 ],
					"checkedcolor" : [ 0.65098, 0.666667, 0.662745, 1.0 ],
					"id" : "obj-155",
					"maxclass" : "toggle",
					"numinlets" : 1,
					"numoutlets" : 1,
					"outlettype" : [ "int" ],
					"parameter_enable" : 0,
					"patching_rect" : [ 251.0, 604.5, 24.0, 24.0 ],
					"presentation" : 1,
					"presentation_rect" : [ 48.5, 498.0, 24.0, 24.0 ],
					"style" : "",
					"uncheckedcolor" : [ 0.239216, 0.254902, 0.278431, 1.0 ]
				}

			}
, 			{
				"box" : 				{
					"id" : "obj-153",
					"maxclass" : "newobj",
					"numinlets" : 2,
					"numoutlets" : 1,
					"outlettype" : [ "bang" ],
					"patching_rect" : [ 251.0, 647.5, 58.0, 22.0 ],
					"style" : "",
					"text" : "metro 15"
				}

			}
, 			{
				"box" : 				{
					"bgcolor" : [ 0.095481, 0.100396, 0.100293, 1.0 ],
					"id" : "obj-152",
					"knobcolor" : [ 0.65098, 0.666667, 0.662745, 1.0 ],
					"maxclass" : "gain~",
					"numinlets" : 1,
					"numoutlets" : 2,
					"outlettype" : [ "signal", "int" ],
					"parameter_enable" : 0,
					"patching_rect" : [ 318.5, 821.0, 22.0, 140.0 ],
					"presentation" : 1,
					"presentation_rect" : [ 305.0, 11.0, 215.0, 40.0 ],
					"stripecolor" : [ 0.239216, 0.254902, 0.278431, 1.0 ],
					"style" : ""
				}

			}
, 			{
				"box" : 				{
					"id" : "obj-150",
					"maxclass" : "gain~",
					"numinlets" : 1,
					"numoutlets" : 2,
					"outlettype" : [ "signal", "int" ],
					"parameter_enable" : 0,
					"patching_rect" : [ 424.0, 821.0, 22.0, 140.0 ],
					"style" : ""
				}

			}
, 			{
				"box" : 				{
					"id" : "obj-151",
					"maxclass" : "gain~",
					"numinlets" : 1,
					"numoutlets" : 2,
					"outlettype" : [ "signal", "int" ],
					"parameter_enable" : 0,
					"patching_rect" : [ 389.5, 821.0, 22.0, 140.0 ],
					"style" : ""
				}

			}
, 			{
				"box" : 				{
					"fontsize" : 20.0,
					"id" : "obj-149",
					"maxclass" : "comment",
					"numinlets" : 1,
					"numoutlets" : 0,
					"patching_rect" : [ 61.0, 975.0, 239.0, 29.0 ],
					"presentation" : 1,
					"presentation_rect" : [ 418.5, 61.0, 103.0, 29.0 ],
					"style" : "",
					"text" : "Channel 3",
					"textcolor" : [ 0.65098, 0.666667, 0.662745, 1.0 ]
				}

			}
, 			{
				"box" : 				{
					"id" : "obj-109",
					"maxclass" : "comment",
					"numinlets" : 1,
					"numoutlets" : 0,
					"patching_rect" : [ 1060.0, 997.0, 150.0, 20.0 ],
					"presentation" : 1,
					"presentation_rect" : [ 488.0, 169.0, 29.0, 20.0 ],
					"style" : "",
					"text" : "V/D",
					"textcolor" : [ 0.65098, 0.666667, 0.662745, 1.0 ]
				}

			}
, 			{
				"box" : 				{
					"id" : "obj-110",
					"maxclass" : "comment",
					"numinlets" : 1,
					"numoutlets" : 0,
					"patching_rect" : [ 1060.0, 997.0, 150.0, 20.0 ],
					"presentation" : 1,
					"presentation_rect" : [ 418.5, 215.0, 29.0, 20.0 ],
					"style" : "",
					"text" : "D/T",
					"textcolor" : [ 0.65098, 0.666667, 0.662745, 1.0 ]
				}

			}
, 			{
				"box" : 				{
					"id" : "obj-111",
					"maxclass" : "comment",
					"numinlets" : 1,
					"numoutlets" : 0,
					"patching_rect" : [ 1060.0, 997.0, 150.0, 20.0 ],
					"presentation" : 1,
					"presentation_rect" : [ 488.0, 215.0, 29.0, 20.0 ],
					"style" : "",
					"text" : "R/T",
					"textcolor" : [ 0.65098, 0.666667, 0.662745, 1.0 ]
				}

			}
, 			{
				"box" : 				{
					"id" : "obj-112",
					"maxclass" : "comment",
					"numinlets" : 1,
					"numoutlets" : 0,
					"patching_rect" : [ 1045.0, 982.0, 150.0, 20.0 ],
					"presentation" : 1,
					"presentation_rect" : [ 418.5, 169.0, 29.0, 20.0 ],
					"style" : "",
					"text" : "D/T",
					"textcolor" : [ 0.65098, 0.666667, 0.662745, 1.0 ]
				}

			}
, 			{
				"box" : 				{
					"fontsize" : 16.0,
					"id" : "obj-113",
					"maxclass" : "comment",
					"numinlets" : 1,
					"numoutlets" : 0,
					"patching_rect" : [ 1045.0, 1004.0, 156.0, 24.0 ],
					"presentation" : 1,
					"presentation_rect" : [ 418.5, 472.0, 60.0, 24.0 ],
					"style" : "",
					"text" : "Output",
					"textcolor" : [ 0.65098, 0.666667, 0.662745, 1.0 ]
				}

			}
, 			{
				"box" : 				{
					"id" : "obj-114",
					"maxclass" : "comment",
					"numinlets" : 1,
					"numoutlets" : 0,
					"patching_rect" : [ 1030.0, 989.0, 150.0, 20.0 ],
					"presentation" : 1,
					"presentation_rect" : [ 418.5, 405.0, 150.0, 20.0 ],
					"style" : "",
					"text" : "Size",
					"textcolor" : [ 0.65098, 0.666667, 0.662745, 1.0 ]
				}

			}
, 			{
				"box" : 				{
					"id" : "obj-115",
					"maxclass" : "comment",
					"numinlets" : 1,
					"numoutlets" : 0,
					"patching_rect" : [ 1030.0, 967.0, 150.0, 20.0 ],
					"presentation" : 1,
					"presentation_rect" : [ 418.5, 338.0, 150.0, 20.0 ],
					"style" : "",
					"text" : "Sample Rate",
					"textcolor" : [ 0.65098, 0.666667, 0.662745, 1.0 ]
				}

			}
, 			{
				"box" : 				{
					"fontsize" : 16.0,
					"id" : "obj-116",
					"maxclass" : "comment",
					"numinlets" : 1,
					"numoutlets" : 0,
					"patching_rect" : [ 1015.0, 952.0, 224.0, 24.0 ],
					"presentation" : 1,
					"presentation_rect" : [ 418.5, 312.0, 73.0, 24.0 ],
					"style" : "",
					"text" : "Degrade",
					"textcolor" : [ 0.65098, 0.666667, 0.662745, 1.0 ]
				}

			}
, 			{
				"box" : 				{
					"fontsize" : 16.0,
					"id" : "obj-117",
					"maxclass" : "comment",
					"numinlets" : 1,
					"numoutlets" : 0,
					"patching_rect" : [ 1000.0, 937.0, 231.0, 24.0 ],
					"presentation" : 1,
					"presentation_rect" : [ 418.5, 262.0, 60.0, 24.0 ],
					"style" : "",
					"text" : "Reverb",
					"textcolor" : [ 0.65098, 0.666667, 0.662745, 1.0 ]
				}

			}
, 			{
				"box" : 				{
					"fontsize" : 16.0,
					"id" : "obj-118",
					"maxclass" : "comment",
					"numinlets" : 1,
					"numoutlets" : 0,
					"patching_rect" : [ 1052.0, 1029.0, 210.0, 24.0 ],
					"presentation" : 1,
					"presentation_rect" : [ 418.5, 139.0, 50.0, 24.0 ],
					"style" : "",
					"text" : "Delay",
					"textcolor" : [ 0.65098, 0.666667, 0.662745, 1.0 ]
				}

			}
, 			{
				"box" : 				{
					"fontsize" : 16.0,
					"id" : "obj-119",
					"maxclass" : "comment",
					"numinlets" : 1,
					"numoutlets" : 0,
					"patching_rect" : [ 1036.0, 982.0, 189.0, 24.0 ],
					"presentation" : 1,
					"presentation_rect" : [ 418.5, 92.0, 44.0, 24.0 ],
					"style" : "",
					"text" : "Input",
					"textcolor" : [ 0.65098, 0.666667, 0.662745, 1.0 ]
				}

			}
, 			{
				"box" : 				{
					"id" : "obj-120",
					"maxclass" : "gain~",
					"numinlets" : 1,
					"numoutlets" : 2,
					"outlettype" : [ "signal", "int" ],
					"parameter_enable" : 0,
					"patching_rect" : [ 1175.0, 713.0, 22.0, 140.0 ],
					"style" : ""
				}

			}
, 			{
				"box" : 				{
					"id" : "obj-121",
					"maxclass" : "gain~",
					"numinlets" : 1,
					"numoutlets" : 2,
					"outlettype" : [ "signal", "int" ],
					"parameter_enable" : 0,
					"patching_rect" : [ 1140.5, 713.0, 22.0, 140.0 ],
					"style" : ""
				}

			}
, 			{
				"box" : 				{
					"bgcolor" : [ 0.095481, 0.100396, 0.100293, 1.0 ],
					"htricolor" : [ 0.862745, 0.870588, 0.878431, 1.0 ],
					"id" : "obj-122",
					"maxclass" : "number",
					"numinlets" : 1,
					"numoutlets" : 2,
					"outlettype" : [ "", "bang" ],
					"parameter_enable" : 0,
					"patching_rect" : [ 1454.0, 279.0, 50.0, 22.0 ],
					"presentation" : 1,
					"presentation_rect" : [ 488.0, 237.0, 54.0, 22.0 ],
					"style" : "",
					"textcolor" : [ 0.65098, 0.666667, 0.662745, 1.0 ],
					"tricolor" : [ 0.239216, 0.254902, 0.278431, 1.0 ]
				}

			}
, 			{
				"box" : 				{
					"bgcolor" : [ 0.095481, 0.100396, 0.100293, 1.0 ],
					"htricolor" : [ 0.862745, 0.870588, 0.878431, 1.0 ],
					"id" : "obj-123",
					"maxclass" : "number",
					"numinlets" : 1,
					"numoutlets" : 2,
					"outlettype" : [ "", "bang" ],
					"parameter_enable" : 0,
					"patching_rect" : [ 1139.0, 244.0, 50.0, 22.0 ],
					"presentation" : 1,
					"presentation_rect" : [ 418.5, 191.0, 54.0, 22.0 ],
					"style" : "",
					"textcolor" : [ 0.65098, 0.666667, 0.662745, 1.0 ],
					"tricolor" : [ 0.239216, 0.254902, 0.278431, 1.0 ]
				}

			}
, 			{
				"box" : 				{
					"bgcolor" : [ 0.095481, 0.100396, 0.100293, 1.0 ],
					"bgcolor2" : [ 0.095481, 0.100396, 0.100293, 1.0 ],
					"bgfillcolor_angle" : 270.0,
					"bgfillcolor_autogradient" : 0.0,
					"bgfillcolor_color" : [ 0.290196, 0.309804, 0.301961, 1.0 ],
					"bgfillcolor_color1" : [ 0.095481, 0.100396, 0.100293, 1.0 ],
					"bgfillcolor_color2" : [ 0.095481, 0.100396, 0.100293, 1.0 ],
					"bgfillcolor_proportion" : 0.39,
					"bgfillcolor_type" : "gradient",
					"fontname" : "Arial",
					"fontsize" : 13.0,
					"gradient" : 1,
					"id" : "obj-124",
					"maxclass" : "message",
					"numinlets" : 2,
					"numoutlets" : 1,
					"outlettype" : [ "" ],
					"patching_rect" : [ 1060.0, 204.0, 41.0, 23.0 ],
					"presentation" : 1,
					"presentation_rect" : [ 473.0, 139.0, 41.0, 23.0 ],
					"style" : "",
					"text" : "clear",
					"textcolor" : [ 0.65098, 0.666667, 0.662745, 1.0 ]
				}

			}
, 			{
				"box" : 				{
					"fontname" : "Arial",
					"fontsize" : 13.0,
					"id" : "obj-125",
					"maxclass" : "newobj",
					"numinlets" : 2,
					"numoutlets" : 2,
					"outlettype" : [ "signal", "bang" ],
					"patching_rect" : [ 1364.0, 343.5, 63.0, 23.0 ],
					"style" : "",
					"text" : "line~ 200"
				}

			}
, 			{
				"box" : 				{
					"bgcolor" : [ 0.095481, 0.100396, 0.100293, 1.0 ],
					"fontname" : "Arial",
					"fontsize" : 13.0,
					"format" : 6,
					"htricolor" : [ 0.862745, 0.870588, 0.878431, 1.0 ],
					"id" : "obj-126",
					"maxclass" : "flonum",
					"numinlets" : 1,
					"numoutlets" : 2,
					"outlettype" : [ "", "bang" ],
					"parameter_enable" : 0,
					"patching_rect" : [ 1364.0, 231.0, 54.0, 23.0 ],
					"presentation" : 1,
					"presentation_rect" : [ 488.0, 191.0, 54.0, 23.0 ],
					"style" : "",
					"textcolor" : [ 0.65098, 0.666667, 0.662745, 1.0 ],
					"tricolor" : [ 0.239216, 0.254902, 0.278431, 1.0 ]
				}

			}
, 			{
				"box" : 				{
					"fontname" : "Arial",
					"fontsize" : 13.0,
					"id" : "obj-127",
					"maxclass" : "message",
					"numinlets" : 2,
					"numoutlets" : 1,
					"outlettype" : [ "" ],
					"patching_rect" : [ 1364.0, 274.0, 49.0, 23.0 ],
					"style" : "",
					"text" : "$1 500"
				}

			}
, 			{
				"box" : 				{
					"fontname" : "Arial",
					"fontsize" : 13.0,
					"id" : "obj-128",
					"maxclass" : "newobj",
					"numinlets" : 1,
					"numoutlets" : 1,
					"outlettype" : [ "signal" ],
					"patching_rect" : [ 1364.0, 375.5, 80.0, 23.0 ],
					"style" : "",
					"text" : "tapout~ 200"
				}

			}
, 			{
				"box" : 				{
					"bgcolor" : [ 0.095481, 0.100396, 0.100293, 1.0 ],
					"fontname" : "Arial",
					"fontsize" : 13.0,
					"format" : 6,
					"htricolor" : [ 0.862745, 0.870588, 0.878431, 1.0 ],
					"id" : "obj-129",
					"maxclass" : "flonum",
					"numinlets" : 1,
					"numoutlets" : 2,
					"outlettype" : [ "", "bang" ],
					"parameter_enable" : 0,
					"patching_rect" : [ 1057.5, 339.5, 54.0, 23.0 ],
					"presentation" : 1,
					"presentation_rect" : [ 418.5, 237.0, 54.0, 23.0 ],
					"style" : "",
					"textcolor" : [ 0.65098, 0.666667, 0.662745, 1.0 ],
					"tricolor" : [ 0.239216, 0.254902, 0.278431, 1.0 ]
				}

			}
, 			{
				"box" : 				{
					"fontname" : "Arial",
					"fontsize" : 13.0,
					"id" : "obj-130",
					"maxclass" : "newobj",
					"numinlets" : 1,
					"numoutlets" : 1,
					"outlettype" : [ "signal" ],
					"patching_rect" : [ 1030.0, 375.5, 80.0, 23.0 ],
					"style" : "",
					"text" : "tapout~ 100"
				}

			}
, 			{
				"box" : 				{
					"fontname" : "Arial",
					"fontsize" : 13.0,
					"id" : "obj-131",
					"maxclass" : "newobj",
					"numinlets" : 1,
					"numoutlets" : 1,
					"outlettype" : [ "tapconnect" ],
					"patching_rect" : [ 1030.0, 273.0, 79.0, 23.0 ],
					"style" : "",
					"text" : "tapin~ 1000"
				}

			}
, 			{
				"box" : 				{
					"bgcolor" : [ 0.095481, 0.100396, 0.100293, 1.0 ],
					"htricolor" : [ 0.862745, 0.870588, 0.878431, 1.0 ],
					"id" : "obj-132",
					"maxclass" : "number",
					"numinlets" : 1,
					"numoutlets" : 2,
					"outlettype" : [ "", "bang" ],
					"parameter_enable" : 0,
					"patching_rect" : [ 1095.0, 482.0, 50.0, 22.0 ],
					"presentation" : 1,
					"presentation_rect" : [ 418.5, 288.0, 50.0, 22.0 ],
					"style" : "",
					"textcolor" : [ 0.65098, 0.666667, 0.662745, 1.0 ],
					"tricolor" : [ 0.239216, 0.254902, 0.278431, 1.0 ]
				}

			}
, 			{
				"box" : 				{
					"id" : "obj-133",
					"maxclass" : "newobj",
					"numinlets" : 2,
					"numoutlets" : 1,
					"outlettype" : [ "signal" ],
					"patching_rect" : [ 1030.0, 515.0, 47.0, 22.0 ],
					"style" : "",
					"text" : "cverb~"
				}

			}
, 			{
				"box" : 				{
					"bgcolor" : [ 0.095481, 0.100396, 0.100293, 1.0 ],
					"id" : "obj-134",
					"knobcolor" : [ 0.65098, 0.666667, 0.662745, 1.0 ],
					"maxclass" : "gain~",
					"numinlets" : 1,
					"numoutlets" : 2,
					"outlettype" : [ "signal", "int" ],
					"parameter_enable" : 0,
					"patching_rect" : [ 1030.0, 160.0, 191.0, 19.0 ],
					"presentation" : 1,
					"presentation_rect" : [ 418.5, 118.0, 191.0, 19.0 ],
					"stripecolor" : [ 0.239216, 0.254902, 0.278431, 1.0 ],
					"style" : ""
				}

			}
, 			{
				"box" : 				{
					"fontname" : "Arial",
					"fontsize" : 11.595187,
					"hidden" : 1,
					"id" : "obj-135",
					"maxclass" : "message",
					"numinlets" : 2,
					"numoutlets" : 1,
					"outlettype" : [ "" ],
					"patching_rect" : [ 1472.5, 566.0, 22.0, 21.0 ],
					"style" : "",
					"text" : "24"
				}

			}
, 			{
				"box" : 				{
					"fontname" : "Arial",
					"fontsize" : 11.595187,
					"hidden" : 1,
					"id" : "obj-136",
					"maxclass" : "message",
					"numinlets" : 2,
					"numoutlets" : 1,
					"outlettype" : [ "" ],
					"patching_rect" : [ 1439.5, 564.0, 32.5, 21.0 ],
					"style" : "",
					"text" : "1."
				}

			}
, 			{
				"box" : 				{
					"fontname" : "Arial",
					"fontsize" : 11.595187,
					"hidden" : 1,
					"id" : "obj-137",
					"maxclass" : "newobj",
					"numinlets" : 1,
					"numoutlets" : 1,
					"outlettype" : [ "bang" ],
					"patching_rect" : [ 1439.5, 539.0, 58.0, 21.0 ],
					"style" : "",
					"text" : "loadbang"
				}

			}
, 			{
				"box" : 				{
					"bgcolor" : [ 0.095481, 0.100396, 0.100293, 1.0 ],
					"cantchange" : 1,
					"fontname" : "Arial",
					"fontsize" : 13.0,
					"htricolor" : [ 0.862745, 0.870588, 0.878431, 1.0 ],
					"id" : "obj-138",
					"maxclass" : "number",
					"numinlets" : 1,
					"numoutlets" : 2,
					"outlettype" : [ "", "bang" ],
					"parameter_enable" : 0,
					"patching_rect" : [ 1283.5, 564.0, 54.0, 23.0 ],
					"presentation" : 1,
					"presentation_rect" : [ 418.5, 447.0, 54.0, 23.0 ],
					"style" : "",
					"textcolor" : [ 0.65098, 0.666667, 0.662745, 1.0 ],
					"triangle" : 0,
					"tricolor" : [ 0.239216, 0.254902, 0.278431, 1.0 ],
					"triscale" : 0.9
				}

			}
, 			{
				"box" : 				{
					"bgcolor" : [ 0.095481, 0.100396, 0.100293, 1.0 ],
					"elementcolor" : [ 0.239216, 0.254902, 0.278431, 1.0 ],
					"id" : "obj-139",
					"knobcolor" : [ 0.65098, 0.666667, 0.662745, 1.0 ],
					"maxclass" : "slider",
					"min" : 1.0,
					"numinlets" : 1,
					"numoutlets" : 1,
					"orientation" : 1,
					"outlettype" : [ "" ],
					"parameter_enable" : 0,
					"patching_rect" : [ 1283.5, 539.0, 144.0, 18.0 ],
					"presentation" : 1,
					"presentation_rect" : [ 418.5, 427.0, 144.0, 18.0 ],
					"size" : 24.0,
					"style" : ""
				}

			}
, 			{
				"box" : 				{
					"bgcolor" : [ 0.095481, 0.100396, 0.100293, 1.0 ],
					"elementcolor" : [ 0.239216, 0.254902, 0.278431, 1.0 ],
					"floatoutput" : 1,
					"id" : "obj-140",
					"knobcolor" : [ 0.65098, 0.666667, 0.662745, 1.0 ],
					"maxclass" : "slider",
					"numinlets" : 1,
					"numoutlets" : 1,
					"orientation" : 1,
					"outlettype" : [ "" ],
					"parameter_enable" : 0,
					"patching_rect" : [ 1082.5, 539.0, 144.0, 18.0 ],
					"presentation" : 1,
					"presentation_rect" : [ 418.5, 360.0, 144.0, 18.0 ],
					"size" : 1.0,
					"style" : ""
				}

			}
, 			{
				"box" : 				{
					"bgcolor" : [ 0.095481, 0.100396, 0.100293, 1.0 ],
					"cantchange" : 1,
					"fontname" : "Arial",
					"fontsize" : 13.0,
					"format" : 6,
					"htricolor" : [ 0.862745, 0.870588, 0.878431, 1.0 ],
					"id" : "obj-141",
					"maxclass" : "flonum",
					"numinlets" : 1,
					"numoutlets" : 2,
					"outlettype" : [ "", "bang" ],
					"parameter_enable" : 0,
					"patching_rect" : [ 1082.5, 564.0, 56.0, 23.0 ],
					"presentation" : 1,
					"presentation_rect" : [ 418.5, 380.0, 56.0, 23.0 ],
					"style" : "",
					"textcolor" : [ 0.65098, 0.666667, 0.662745, 1.0 ],
					"triangle" : 0,
					"tricolor" : [ 0.239216, 0.254902, 0.278431, 1.0 ],
					"triscale" : 0.9
				}

			}
, 			{
				"box" : 				{
					"fontname" : "Arial",
					"fontsize" : 13.0,
					"id" : "obj-142",
					"maxclass" : "newobj",
					"numinlets" : 3,
					"numoutlets" : 1,
					"outlettype" : [ "signal" ],
					"patching_rect" : [ 1030.0, 602.0, 67.0, 23.0 ],
					"style" : "",
					"text" : "degrade~"
				}

			}
, 			{
				"box" : 				{
					"activedialcolor" : [ 1.0, 1.0, 1.0, 1.0 ],
					"activeneedlecolor" : [ 0.65098, 0.666667, 0.662745, 1.0 ],
					"id" : "obj-143",
					"maxclass" : "live.dial",
					"numinlets" : 1,
					"numoutlets" : 2,
					"outlettype" : [ "", "float" ],
					"parameter_enable" : 1,
					"patching_rect" : [ 1043.5, 647.5, 44.0, 47.0 ],
					"presentation" : 1,
					"presentation_rect" : [ 418.5, 498.0, 44.0, 47.0 ],
					"saved_attribute_attributes" : 					{
						"valueof" : 						{
							"parameter_longname" : "live.dial[2]",
							"parameter_shortname" : "Pan",
							"parameter_type" : 0,
							"parameter_initial_enable" : 1,
							"parameter_initial" : [ 64.0 ],
							"parameter_unitstyle" : 0
						}

					}
,
					"textcolor" : [ 0.65098, 0.666667, 0.662745, 1.0 ],
					"varname" : "live.dial[2]"
				}

			}
, 			{
				"box" : 				{
					"id" : "obj-144",
					"maxclass" : "newobj",
					"numinlets" : 4,
					"numoutlets" : 2,
					"outlettype" : [ "signal", "signal" ],
					"patching_rect" : [ 1112.0, 647.5, 50.5, 22.0 ],
					"style" : "",
					"text" : "pan2"
				}

			}
, 			{
				"box" : 				{
					"bgcolor" : [ 0.095481, 0.100396, 0.100293, 1.0 ],
					"id" : "obj-145",
					"maxclass" : "meter~",
					"numinlets" : 1,
					"numoutlets" : 1,
					"offcolor" : [ 0.239216, 0.254902, 0.278431, 1.0 ],
					"oncolor" : [ 0.65098, 0.666667, 0.662745, 1.0 ],
					"outlettype" : [ "float" ],
					"patching_rect" : [ 1079.0, 713.0, 19.0, 140.0 ],
					"presentation" : 1,
					"presentation_rect" : [ 467.5, 547.0, 19.0, 140.0 ],
					"style" : ""
				}

			}
, 			{
				"box" : 				{
					"id" : "obj-146",
					"maxclass" : "newobj",
					"numinlets" : 1,
					"numoutlets" : 1,
					"outlettype" : [ "signal" ],
					"patching_rect" : [ 1030.0, 121.0, 47.0, 22.0 ],
					"style" : "",
					"text" : "adc~ 3"
				}

			}
, 			{
				"box" : 				{
					"bgcolor" : [ 0.095481, 0.100396, 0.100293, 1.0 ],
					"id" : "obj-147",
					"maxclass" : "meter~",
					"numinlets" : 1,
					"numoutlets" : 1,
					"offcolor" : [ 0.239216, 0.254902, 0.278431, 1.0 ],
					"oncolor" : [ 0.65098, 0.666667, 0.662745, 1.0 ],
					"outlettype" : [ "float" ],
					"patching_rect" : [ 1056.0, 713.0, 19.0, 140.0 ],
					"presentation" : 1,
					"presentation_rect" : [ 444.5, 547.0, 19.0, 140.0 ],
					"style" : ""
				}

			}
, 			{
				"box" : 				{
					"bgcolor" : [ 0.095481, 0.100396, 0.100293, 1.0 ],
					"id" : "obj-148",
					"knobcolor" : [ 0.65098, 0.666667, 0.662745, 1.0 ],
					"maxclass" : "gain~",
					"numinlets" : 1,
					"numoutlets" : 2,
					"outlettype" : [ "signal", "int" ],
					"parameter_enable" : 0,
					"patching_rect" : [ 1030.0, 713.0, 22.0, 140.0 ],
					"presentation" : 1,
					"presentation_rect" : [ 418.5, 547.0, 22.0, 140.0 ],
					"stripecolor" : [ 0.239216, 0.254902, 0.278431, 1.0 ],
					"style" : ""
				}

			}
, 			{
				"box" : 				{
					"id" : "obj-67",
					"maxclass" : "comment",
					"numinlets" : 1,
					"numoutlets" : 0,
					"patching_rect" : [ 574.0, 997.0, 150.0, 20.0 ],
					"presentation" : 1,
					"presentation_rect" : [ 284.0, 169.0, 29.0, 20.0 ],
					"style" : "",
					"text" : "V/D",
					"textcolor" : [ 0.65098, 0.666667, 0.662745, 1.0 ]
				}

			}
, 			{
				"box" : 				{
					"id" : "obj-68",
					"maxclass" : "comment",
					"numinlets" : 1,
					"numoutlets" : 0,
					"patching_rect" : [ 574.0, 997.0, 150.0, 20.0 ],
					"presentation" : 1,
					"presentation_rect" : [ 214.5, 215.0, 29.0, 20.0 ],
					"style" : "",
					"text" : "D/T",
					"textcolor" : [ 0.65098, 0.666667, 0.662745, 1.0 ]
				}

			}
, 			{
				"box" : 				{
					"id" : "obj-69",
					"maxclass" : "comment",
					"numinlets" : 1,
					"numoutlets" : 0,
					"patching_rect" : [ 574.0, 997.0, 150.0, 20.0 ],
					"presentation" : 1,
					"presentation_rect" : [ 284.0, 215.0, 29.0, 20.0 ],
					"style" : "",
					"text" : "R/T",
					"textcolor" : [ 0.65098, 0.666667, 0.662745, 1.0 ]
				}

			}
, 			{
				"box" : 				{
					"id" : "obj-70",
					"maxclass" : "comment",
					"numinlets" : 1,
					"numoutlets" : 0,
					"patching_rect" : [ 559.0, 982.0, 150.0, 20.0 ],
					"presentation" : 1,
					"presentation_rect" : [ 214.5, 169.0, 29.0, 20.0 ],
					"style" : "",
					"text" : "D/T",
					"textcolor" : [ 0.65098, 0.666667, 0.662745, 1.0 ]
				}

			}
, 			{
				"box" : 				{
					"fontsize" : 16.0,
					"id" : "obj-71",
					"maxclass" : "comment",
					"numinlets" : 1,
					"numoutlets" : 0,
					"patching_rect" : [ 559.0, 1004.0, 156.0, 24.0 ],
					"presentation" : 1,
					"presentation_rect" : [ 214.5, 472.0, 60.0, 24.0 ],
					"style" : "",
					"text" : "Output",
					"textcolor" : [ 0.65098, 0.666667, 0.662745, 1.0 ]
				}

			}
, 			{
				"box" : 				{
					"id" : "obj-72",
					"maxclass" : "comment",
					"numinlets" : 1,
					"numoutlets" : 0,
					"patching_rect" : [ 544.0, 989.0, 150.0, 20.0 ],
					"presentation" : 1,
					"presentation_rect" : [ 214.5, 405.0, 150.0, 20.0 ],
					"style" : "",
					"text" : "Size",
					"textcolor" : [ 0.65098, 0.666667, 0.662745, 1.0 ]
				}

			}
, 			{
				"box" : 				{
					"id" : "obj-73",
					"maxclass" : "comment",
					"numinlets" : 1,
					"numoutlets" : 0,
					"patching_rect" : [ 544.0, 967.0, 150.0, 20.0 ],
					"presentation" : 1,
					"presentation_rect" : [ 214.5, 338.0, 150.0, 20.0 ],
					"style" : "",
					"text" : "Sample Rate",
					"textcolor" : [ 0.65098, 0.666667, 0.662745, 1.0 ]
				}

			}
, 			{
				"box" : 				{
					"fontsize" : 16.0,
					"id" : "obj-74",
					"maxclass" : "comment",
					"numinlets" : 1,
					"numoutlets" : 0,
					"patching_rect" : [ 529.0, 952.0, 224.0, 24.0 ],
					"presentation" : 1,
					"presentation_rect" : [ 214.5, 312.0, 73.0, 24.0 ],
					"style" : "",
					"text" : "Degrade",
					"textcolor" : [ 0.65098, 0.666667, 0.662745, 1.0 ]
				}

			}
, 			{
				"box" : 				{
					"fontsize" : 16.0,
					"id" : "obj-75",
					"maxclass" : "comment",
					"numinlets" : 1,
					"numoutlets" : 0,
					"patching_rect" : [ 514.0, 937.0, 231.0, 24.0 ],
					"presentation" : 1,
					"presentation_rect" : [ 214.5, 262.0, 60.0, 24.0 ],
					"style" : "",
					"text" : "Reverb",
					"textcolor" : [ 0.65098, 0.666667, 0.662745, 1.0 ]
				}

			}
, 			{
				"box" : 				{
					"fontsize" : 16.0,
					"id" : "obj-76",
					"maxclass" : "comment",
					"numinlets" : 1,
					"numoutlets" : 0,
					"patching_rect" : [ 566.0, 1029.0, 210.0, 24.0 ],
					"presentation" : 1,
					"presentation_rect" : [ 214.5, 139.0, 50.0, 24.0 ],
					"style" : "",
					"text" : "Delay",
					"textcolor" : [ 0.65098, 0.666667, 0.662745, 1.0 ]
				}

			}
, 			{
				"box" : 				{
					"fontsize" : 16.0,
					"id" : "obj-77",
					"maxclass" : "comment",
					"numinlets" : 1,
					"numoutlets" : 0,
					"patching_rect" : [ 550.0, 982.0, 189.0, 24.0 ],
					"presentation" : 1,
					"presentation_rect" : [ 214.5, 92.0, 44.0, 24.0 ],
					"style" : "",
					"text" : "Input",
					"textcolor" : [ 0.65098, 0.666667, 0.662745, 1.0 ]
				}

			}
, 			{
				"box" : 				{
					"id" : "obj-79",
					"maxclass" : "gain~",
					"numinlets" : 1,
					"numoutlets" : 2,
					"outlettype" : [ "signal", "int" ],
					"parameter_enable" : 0,
					"patching_rect" : [ 689.0, 713.0, 22.0, 140.0 ],
					"style" : ""
				}

			}
, 			{
				"box" : 				{
					"id" : "obj-80",
					"maxclass" : "gain~",
					"numinlets" : 1,
					"numoutlets" : 2,
					"outlettype" : [ "signal", "int" ],
					"parameter_enable" : 0,
					"patching_rect" : [ 654.5, 713.0, 22.0, 140.0 ],
					"style" : ""
				}

			}
, 			{
				"box" : 				{
					"bgcolor" : [ 0.095481, 0.100396, 0.100293, 1.0 ],
					"htricolor" : [ 0.862745, 0.870588, 0.878431, 1.0 ],
					"id" : "obj-82",
					"maxclass" : "number",
					"numinlets" : 1,
					"numoutlets" : 2,
					"outlettype" : [ "", "bang" ],
					"parameter_enable" : 0,
					"patching_rect" : [ 968.0, 279.0, 50.0, 22.0 ],
					"presentation" : 1,
					"presentation_rect" : [ 284.0, 237.0, 54.0, 22.0 ],
					"style" : "",
					"textcolor" : [ 0.65098, 0.666667, 0.662745, 1.0 ],
					"tricolor" : [ 0.239216, 0.254902, 0.278431, 1.0 ]
				}

			}
, 			{
				"box" : 				{
					"bgcolor" : [ 0.095481, 0.100396, 0.100293, 1.0 ],
					"htricolor" : [ 0.862745, 0.870588, 0.878431, 1.0 ],
					"id" : "obj-83",
					"maxclass" : "number",
					"numinlets" : 1,
					"numoutlets" : 2,
					"outlettype" : [ "", "bang" ],
					"parameter_enable" : 0,
					"patching_rect" : [ 653.0, 244.0, 50.0, 22.0 ],
					"presentation" : 1,
					"presentation_rect" : [ 214.5, 191.0, 54.0, 22.0 ],
					"style" : "",
					"textcolor" : [ 0.65098, 0.666667, 0.662745, 1.0 ],
					"tricolor" : [ 0.239216, 0.254902, 0.278431, 1.0 ]
				}

			}
, 			{
				"box" : 				{
					"bgcolor" : [ 0.095481, 0.100396, 0.100293, 1.0 ],
					"bgcolor2" : [ 0.095481, 0.100396, 0.100293, 1.0 ],
					"bgfillcolor_angle" : 270.0,
					"bgfillcolor_autogradient" : 0.0,
					"bgfillcolor_color" : [ 0.290196, 0.309804, 0.301961, 1.0 ],
					"bgfillcolor_color1" : [ 0.095481, 0.100396, 0.100293, 1.0 ],
					"bgfillcolor_color2" : [ 0.095481, 0.100396, 0.100293, 1.0 ],
					"bgfillcolor_proportion" : 0.39,
					"bgfillcolor_type" : "gradient",
					"fontname" : "Arial",
					"fontsize" : 13.0,
					"gradient" : 1,
					"id" : "obj-84",
					"maxclass" : "message",
					"numinlets" : 2,
					"numoutlets" : 1,
					"outlettype" : [ "" ],
					"patching_rect" : [ 574.0, 204.0, 41.0, 23.0 ],
					"presentation" : 1,
					"presentation_rect" : [ 269.0, 139.0, 41.0, 23.0 ],
					"style" : "",
					"text" : "clear",
					"textcolor" : [ 0.65098, 0.666667, 0.662745, 1.0 ]
				}

			}
, 			{
				"box" : 				{
					"fontname" : "Arial",
					"fontsize" : 13.0,
					"id" : "obj-85",
					"maxclass" : "newobj",
					"numinlets" : 2,
					"numoutlets" : 2,
					"outlettype" : [ "signal", "bang" ],
					"patching_rect" : [ 878.0, 343.5, 63.0, 23.0 ],
					"style" : "",
					"text" : "line~ 200"
				}

			}
, 			{
				"box" : 				{
					"bgcolor" : [ 0.095481, 0.100396, 0.100293, 1.0 ],
					"fontname" : "Arial",
					"fontsize" : 13.0,
					"format" : 6,
					"htricolor" : [ 0.862745, 0.870588, 0.878431, 1.0 ],
					"id" : "obj-86",
					"maxclass" : "flonum",
					"numinlets" : 1,
					"numoutlets" : 2,
					"outlettype" : [ "", "bang" ],
					"parameter_enable" : 0,
					"patching_rect" : [ 878.0, 231.0, 54.0, 23.0 ],
					"presentation" : 1,
					"presentation_rect" : [ 284.0, 191.0, 54.0, 23.0 ],
					"style" : "",
					"textcolor" : [ 0.65098, 0.666667, 0.662745, 1.0 ],
					"tricolor" : [ 0.239216, 0.254902, 0.278431, 1.0 ]
				}

			}
, 			{
				"box" : 				{
					"fontname" : "Arial",
					"fontsize" : 13.0,
					"id" : "obj-87",
					"maxclass" : "message",
					"numinlets" : 2,
					"numoutlets" : 1,
					"outlettype" : [ "" ],
					"patching_rect" : [ 878.0, 274.0, 49.0, 23.0 ],
					"style" : "",
					"text" : "$1 500"
				}

			}
, 			{
				"box" : 				{
					"fontname" : "Arial",
					"fontsize" : 13.0,
					"id" : "obj-88",
					"maxclass" : "newobj",
					"numinlets" : 1,
					"numoutlets" : 1,
					"outlettype" : [ "signal" ],
					"patching_rect" : [ 878.0, 375.5, 80.0, 23.0 ],
					"style" : "",
					"text" : "tapout~ 200"
				}

			}
, 			{
				"box" : 				{
					"bgcolor" : [ 0.095481, 0.100396, 0.100293, 1.0 ],
					"fontname" : "Arial",
					"fontsize" : 13.0,
					"format" : 6,
					"htricolor" : [ 0.862745, 0.870588, 0.878431, 1.0 ],
					"id" : "obj-89",
					"maxclass" : "flonum",
					"numinlets" : 1,
					"numoutlets" : 2,
					"outlettype" : [ "", "bang" ],
					"parameter_enable" : 0,
					"patching_rect" : [ 571.5, 339.5, 54.0, 23.0 ],
					"presentation" : 1,
					"presentation_rect" : [ 214.5, 237.0, 54.0, 23.0 ],
					"style" : "",
					"textcolor" : [ 0.65098, 0.666667, 0.662745, 1.0 ],
					"tricolor" : [ 0.239216, 0.254902, 0.278431, 1.0 ]
				}

			}
, 			{
				"box" : 				{
					"fontname" : "Arial",
					"fontsize" : 13.0,
					"id" : "obj-90",
					"maxclass" : "newobj",
					"numinlets" : 1,
					"numoutlets" : 1,
					"outlettype" : [ "signal" ],
					"patching_rect" : [ 544.0, 375.5, 80.0, 23.0 ],
					"style" : "",
					"text" : "tapout~ 100"
				}

			}
, 			{
				"box" : 				{
					"fontname" : "Arial",
					"fontsize" : 13.0,
					"id" : "obj-91",
					"maxclass" : "newobj",
					"numinlets" : 1,
					"numoutlets" : 1,
					"outlettype" : [ "tapconnect" ],
					"patching_rect" : [ 544.0, 273.0, 79.0, 23.0 ],
					"style" : "",
					"text" : "tapin~ 1000"
				}

			}
, 			{
				"box" : 				{
					"bgcolor" : [ 0.095481, 0.100396, 0.100293, 1.0 ],
					"htricolor" : [ 0.862745, 0.870588, 0.878431, 1.0 ],
					"id" : "obj-92",
					"maxclass" : "number",
					"numinlets" : 1,
					"numoutlets" : 2,
					"outlettype" : [ "", "bang" ],
					"parameter_enable" : 0,
					"patching_rect" : [ 609.0, 482.0, 50.0, 22.0 ],
					"presentation" : 1,
					"presentation_rect" : [ 214.5, 288.0, 50.0, 22.0 ],
					"style" : "",
					"textcolor" : [ 0.65098, 0.666667, 0.662745, 1.0 ],
					"tricolor" : [ 0.239216, 0.254902, 0.278431, 1.0 ]
				}

			}
, 			{
				"box" : 				{
					"id" : "obj-93",
					"maxclass" : "newobj",
					"numinlets" : 2,
					"numoutlets" : 1,
					"outlettype" : [ "signal" ],
					"patching_rect" : [ 544.0, 515.0, 47.0, 22.0 ],
					"style" : "",
					"text" : "cverb~"
				}

			}
, 			{
				"box" : 				{
					"bgcolor" : [ 0.095481, 0.100396, 0.100293, 1.0 ],
					"id" : "obj-94",
					"knobcolor" : [ 0.65098, 0.666667, 0.662745, 1.0 ],
					"maxclass" : "gain~",
					"numinlets" : 1,
					"numoutlets" : 2,
					"outlettype" : [ "signal", "int" ],
					"parameter_enable" : 0,
					"patching_rect" : [ 544.0, 160.0, 191.0, 19.0 ],
					"presentation" : 1,
					"presentation_rect" : [ 214.5, 118.0, 191.0, 19.0 ],
					"stripecolor" : [ 0.239216, 0.254902, 0.278431, 1.0 ],
					"style" : ""
				}

			}
, 			{
				"box" : 				{
					"fontname" : "Arial",
					"fontsize" : 11.595187,
					"hidden" : 1,
					"id" : "obj-95",
					"maxclass" : "message",
					"numinlets" : 2,
					"numoutlets" : 1,
					"outlettype" : [ "" ],
					"patching_rect" : [ 986.5, 566.0, 22.0, 21.0 ],
					"style" : "",
					"text" : "24"
				}

			}
, 			{
				"box" : 				{
					"fontname" : "Arial",
					"fontsize" : 11.595187,
					"hidden" : 1,
					"id" : "obj-96",
					"maxclass" : "message",
					"numinlets" : 2,
					"numoutlets" : 1,
					"outlettype" : [ "" ],
					"patching_rect" : [ 953.5, 564.0, 32.5, 21.0 ],
					"style" : "",
					"text" : "1."
				}

			}
, 			{
				"box" : 				{
					"fontname" : "Arial",
					"fontsize" : 11.595187,
					"hidden" : 1,
					"id" : "obj-97",
					"maxclass" : "newobj",
					"numinlets" : 1,
					"numoutlets" : 1,
					"outlettype" : [ "bang" ],
					"patching_rect" : [ 953.5, 539.0, 58.0, 21.0 ],
					"style" : "",
					"text" : "loadbang"
				}

			}
, 			{
				"box" : 				{
					"bgcolor" : [ 0.095481, 0.100396, 0.100293, 1.0 ],
					"cantchange" : 1,
					"fontname" : "Arial",
					"fontsize" : 13.0,
					"htricolor" : [ 0.862745, 0.870588, 0.878431, 1.0 ],
					"id" : "obj-98",
					"maxclass" : "number",
					"numinlets" : 1,
					"numoutlets" : 2,
					"outlettype" : [ "", "bang" ],
					"parameter_enable" : 0,
					"patching_rect" : [ 797.5, 564.0, 54.0, 23.0 ],
					"presentation" : 1,
					"presentation_rect" : [ 214.5, 447.0, 54.0, 23.0 ],
					"style" : "",
					"textcolor" : [ 0.65098, 0.666667, 0.662745, 1.0 ],
					"triangle" : 0,
					"tricolor" : [ 0.239216, 0.254902, 0.278431, 1.0 ],
					"triscale" : 0.9
				}

			}
, 			{
				"box" : 				{
					"bgcolor" : [ 0.095481, 0.100396, 0.100293, 1.0 ],
					"elementcolor" : [ 0.239216, 0.254902, 0.278431, 1.0 ],
					"id" : "obj-99",
					"knobcolor" : [ 0.65098, 0.666667, 0.662745, 1.0 ],
					"maxclass" : "slider",
					"min" : 1.0,
					"numinlets" : 1,
					"numoutlets" : 1,
					"orientation" : 1,
					"outlettype" : [ "" ],
					"parameter_enable" : 0,
					"patching_rect" : [ 797.5, 539.0, 144.0, 18.0 ],
					"presentation" : 1,
					"presentation_rect" : [ 214.5, 427.0, 144.0, 18.0 ],
					"size" : 24.0,
					"style" : ""
				}

			}
, 			{
				"box" : 				{
					"bgcolor" : [ 0.095481, 0.100396, 0.100293, 1.0 ],
					"elementcolor" : [ 0.239216, 0.254902, 0.278431, 1.0 ],
					"floatoutput" : 1,
					"id" : "obj-100",
					"knobcolor" : [ 0.65098, 0.666667, 0.662745, 1.0 ],
					"maxclass" : "slider",
					"numinlets" : 1,
					"numoutlets" : 1,
					"orientation" : 1,
					"outlettype" : [ "" ],
					"parameter_enable" : 0,
					"patching_rect" : [ 596.5, 539.0, 144.0, 18.0 ],
					"presentation" : 1,
					"presentation_rect" : [ 214.5, 360.0, 144.0, 18.0 ],
					"size" : 1.0,
					"style" : ""
				}

			}
, 			{
				"box" : 				{
					"bgcolor" : [ 0.095481, 0.100396, 0.100293, 1.0 ],
					"cantchange" : 1,
					"fontname" : "Arial",
					"fontsize" : 13.0,
					"format" : 6,
					"htricolor" : [ 0.862745, 0.870588, 0.878431, 1.0 ],
					"id" : "obj-101",
					"maxclass" : "flonum",
					"numinlets" : 1,
					"numoutlets" : 2,
					"outlettype" : [ "", "bang" ],
					"parameter_enable" : 0,
					"patching_rect" : [ 596.5, 564.0, 56.0, 23.0 ],
					"presentation" : 1,
					"presentation_rect" : [ 214.5, 380.0, 56.0, 23.0 ],
					"style" : "",
					"textcolor" : [ 0.65098, 0.666667, 0.662745, 1.0 ],
					"triangle" : 0,
					"tricolor" : [ 0.239216, 0.254902, 0.278431, 1.0 ],
					"triscale" : 0.9
				}

			}
, 			{
				"box" : 				{
					"fontname" : "Arial",
					"fontsize" : 13.0,
					"id" : "obj-102",
					"maxclass" : "newobj",
					"numinlets" : 3,
					"numoutlets" : 1,
					"outlettype" : [ "signal" ],
					"patching_rect" : [ 544.0, 602.0, 67.0, 23.0 ],
					"style" : "",
					"text" : "degrade~"
				}

			}
, 			{
				"box" : 				{
					"activedialcolor" : [ 1.0, 1.0, 1.0, 1.0 ],
					"activeneedlecolor" : [ 0.65098, 0.666667, 0.662745, 1.0 ],
					"id" : "obj-103",
					"maxclass" : "live.dial",
					"numinlets" : 1,
					"numoutlets" : 2,
					"outlettype" : [ "", "float" ],
					"parameter_enable" : 1,
					"patching_rect" : [ 557.5, 647.5, 44.0, 47.0 ],
					"presentation" : 1,
					"presentation_rect" : [ 214.5, 498.0, 44.0, 47.0 ],
					"saved_attribute_attributes" : 					{
						"valueof" : 						{
							"parameter_longname" : "live.dial[1]",
							"parameter_shortname" : "Pan",
							"parameter_type" : 0,
							"parameter_initial_enable" : 1,
							"parameter_initial" : [ 64.0 ],
							"parameter_unitstyle" : 0
						}

					}
,
					"textcolor" : [ 0.65098, 0.666667, 0.662745, 1.0 ],
					"varname" : "live.dial[1]"
				}

			}
, 			{
				"box" : 				{
					"id" : "obj-104",
					"maxclass" : "newobj",
					"numinlets" : 4,
					"numoutlets" : 2,
					"outlettype" : [ "signal", "signal" ],
					"patching_rect" : [ 626.0, 647.5, 50.5, 22.0 ],
					"style" : "",
					"text" : "pan2"
				}

			}
, 			{
				"box" : 				{
					"bgcolor" : [ 0.095481, 0.100396, 0.100293, 1.0 ],
					"id" : "obj-105",
					"maxclass" : "meter~",
					"numinlets" : 1,
					"numoutlets" : 1,
					"offcolor" : [ 0.239216, 0.254902, 0.278431, 1.0 ],
					"oncolor" : [ 0.65098, 0.666667, 0.662745, 1.0 ],
					"outlettype" : [ "float" ],
					"patching_rect" : [ 593.0, 713.0, 19.0, 140.0 ],
					"presentation" : 1,
					"presentation_rect" : [ 263.5, 547.0, 19.0, 140.0 ],
					"style" : ""
				}

			}
, 			{
				"box" : 				{
					"id" : "obj-106",
					"maxclass" : "newobj",
					"numinlets" : 1,
					"numoutlets" : 1,
					"outlettype" : [ "signal" ],
					"patching_rect" : [ 544.0, 121.0, 47.0, 22.0 ],
					"style" : "",
					"text" : "adc~ 2"
				}

			}
, 			{
				"box" : 				{
					"bgcolor" : [ 0.095481, 0.100396, 0.100293, 1.0 ],
					"id" : "obj-107",
					"maxclass" : "meter~",
					"numinlets" : 1,
					"numoutlets" : 1,
					"offcolor" : [ 0.239216, 0.254902, 0.278431, 1.0 ],
					"oncolor" : [ 0.65098, 0.666667, 0.662745, 1.0 ],
					"outlettype" : [ "float" ],
					"patching_rect" : [ 570.0, 713.0, 19.0, 140.0 ],
					"presentation" : 1,
					"presentation_rect" : [ 240.5, 547.0, 19.0, 140.0 ],
					"style" : ""
				}

			}
, 			{
				"box" : 				{
					"bgcolor" : [ 0.095481, 0.100396, 0.100293, 1.0 ],
					"id" : "obj-108",
					"knobcolor" : [ 0.65098, 0.666667, 0.662745, 1.0 ],
					"maxclass" : "gain~",
					"numinlets" : 1,
					"numoutlets" : 2,
					"outlettype" : [ "signal", "int" ],
					"parameter_enable" : 0,
					"patching_rect" : [ 544.0, 713.0, 22.0, 140.0 ],
					"presentation" : 1,
					"presentation_rect" : [ 214.5, 547.0, 22.0, 140.0 ],
					"stripecolor" : [ 0.239216, 0.254902, 0.278431, 1.0 ],
					"style" : ""
				}

			}
, 			{
				"box" : 				{
					"fontsize" : 20.0,
					"id" : "obj-65",
					"maxclass" : "comment",
					"numinlets" : 1,
					"numoutlets" : 0,
					"patching_rect" : [ 46.0, 960.0, 239.0, 29.0 ],
					"presentation" : 1,
					"presentation_rect" : [ 214.5, 61.0, 103.0, 29.0 ],
					"style" : "",
					"text" : "Channel 2",
					"textcolor" : [ 0.65098, 0.666667, 0.662745, 1.0 ]
				}

			}
, 			{
				"box" : 				{
					"id" : "obj-64",
					"maxclass" : "comment",
					"numinlets" : 1,
					"numoutlets" : 0,
					"patching_rect" : [ 72.0, 997.0, 150.0, 20.0 ],
					"presentation" : 1,
					"presentation_rect" : [ 78.5, 169.0, 29.0, 20.0 ],
					"style" : "",
					"text" : "V/D",
					"textcolor" : [ 0.65098, 0.666667, 0.662745, 1.0 ]
				}

			}
, 			{
				"box" : 				{
					"id" : "obj-63",
					"maxclass" : "comment",
					"numinlets" : 1,
					"numoutlets" : 0,
					"patching_rect" : [ 72.0, 997.0, 150.0, 20.0 ],
					"presentation" : 1,
					"presentation_rect" : [ 9.0, 215.0, 29.0, 20.0 ],
					"style" : "",
					"text" : "D/T",
					"textcolor" : [ 0.65098, 0.666667, 0.662745, 1.0 ]
				}

			}
, 			{
				"box" : 				{
					"id" : "obj-62",
					"maxclass" : "comment",
					"numinlets" : 1,
					"numoutlets" : 0,
					"patching_rect" : [ 72.0, 997.0, 150.0, 20.0 ],
					"presentation" : 1,
					"presentation_rect" : [ 78.5, 215.0, 29.0, 20.0 ],
					"style" : "",
					"text" : "R/T",
					"textcolor" : [ 0.65098, 0.666667, 0.662745, 1.0 ]
				}

			}
, 			{
				"box" : 				{
					"id" : "obj-61",
					"maxclass" : "comment",
					"numinlets" : 1,
					"numoutlets" : 0,
					"patching_rect" : [ 57.0, 982.0, 150.0, 20.0 ],
					"presentation" : 1,
					"presentation_rect" : [ 9.0, 169.0, 29.0, 20.0 ],
					"style" : "",
					"text" : "D/T",
					"textcolor" : [ 0.65098, 0.666667, 0.662745, 1.0 ]
				}

			}
, 			{
				"box" : 				{
					"fontsize" : 16.0,
					"id" : "obj-60",
					"maxclass" : "comment",
					"numinlets" : 1,
					"numoutlets" : 0,
					"patching_rect" : [ 57.0, 1004.0, 156.0, 24.0 ],
					"presentation" : 1,
					"presentation_rect" : [ 9.0, 472.0, 60.0, 24.0 ],
					"style" : "",
					"text" : "Output",
					"textcolor" : [ 0.65098, 0.666667, 0.662745, 1.0 ]
				}

			}
, 			{
				"box" : 				{
					"id" : "obj-59",
					"maxclass" : "comment",
					"numinlets" : 1,
					"numoutlets" : 0,
					"patching_rect" : [ 42.0, 989.0, 150.0, 20.0 ],
					"presentation" : 1,
					"presentation_rect" : [ 9.0, 405.0, 150.0, 20.0 ],
					"style" : "",
					"text" : "Size",
					"textcolor" : [ 0.65098, 0.666667, 0.662745, 1.0 ]
				}

			}
, 			{
				"box" : 				{
					"id" : "obj-58",
					"maxclass" : "comment",
					"numinlets" : 1,
					"numoutlets" : 0,
					"patching_rect" : [ 42.0, 967.0, 150.0, 20.0 ],
					"presentation" : 1,
					"presentation_rect" : [ 9.0, 338.0, 150.0, 20.0 ],
					"style" : "",
					"text" : "Sample Rate",
					"textcolor" : [ 0.65098, 0.666667, 0.662745, 1.0 ]
				}

			}
, 			{
				"box" : 				{
					"fontsize" : 16.0,
					"id" : "obj-57",
					"maxclass" : "comment",
					"numinlets" : 1,
					"numoutlets" : 0,
					"patching_rect" : [ 27.0, 952.0, 224.0, 24.0 ],
					"presentation" : 1,
					"presentation_rect" : [ 9.0, 312.0, 73.0, 24.0 ],
					"style" : "",
					"text" : "Degrade",
					"textcolor" : [ 0.65098, 0.666667, 0.662745, 1.0 ]
				}

			}
, 			{
				"box" : 				{
					"fontsize" : 16.0,
					"id" : "obj-56",
					"maxclass" : "comment",
					"numinlets" : 1,
					"numoutlets" : 0,
					"patching_rect" : [ 12.0, 937.0, 231.0, 24.0 ],
					"presentation" : 1,
					"presentation_rect" : [ 9.0, 262.0, 60.0, 24.0 ],
					"style" : "",
					"text" : "Reverb",
					"textcolor" : [ 0.65098, 0.666667, 0.662745, 1.0 ]
				}

			}
, 			{
				"box" : 				{
					"fontsize" : 16.0,
					"id" : "obj-55",
					"maxclass" : "comment",
					"numinlets" : 1,
					"numoutlets" : 0,
					"patching_rect" : [ 64.0, 1029.0, 210.0, 24.0 ],
					"presentation" : 1,
					"presentation_rect" : [ 9.0, 139.0, 50.0, 24.0 ],
					"style" : "",
					"text" : "Delay",
					"textcolor" : [ 0.65098, 0.666667, 0.662745, 1.0 ]
				}

			}
, 			{
				"box" : 				{
					"fontsize" : 16.0,
					"id" : "obj-53",
					"maxclass" : "comment",
					"numinlets" : 1,
					"numoutlets" : 0,
					"patching_rect" : [ 48.0, 982.0, 189.0, 24.0 ],
					"presentation" : 1,
					"presentation_rect" : [ 9.0, 92.0, 44.0, 24.0 ],
					"style" : "",
					"text" : "Input",
					"textcolor" : [ 0.65098, 0.666667, 0.662745, 1.0 ]
				}

			}
, 			{
				"box" : 				{
					"fontsize" : 20.0,
					"id" : "obj-50",
					"maxclass" : "comment",
					"numinlets" : 1,
					"numoutlets" : 0,
					"patching_rect" : [ 31.0, 945.0, 239.0, 29.0 ],
					"presentation" : 1,
					"presentation_rect" : [ 9.0, 61.0, 103.0, 29.0 ],
					"style" : "",
					"text" : "Channel 1",
					"textcolor" : [ 0.65098, 0.666667, 0.662745, 1.0 ]
				}

			}
, 			{
				"box" : 				{
					"id" : "obj-48",
					"maxclass" : "gain~",
					"numinlets" : 1,
					"numoutlets" : 2,
					"outlettype" : [ "signal", "int" ],
					"parameter_enable" : 0,
					"patching_rect" : [ 187.0, 713.0, 22.0, 140.0 ],
					"style" : ""
				}

			}
, 			{
				"box" : 				{
					"id" : "obj-47",
					"maxclass" : "gain~",
					"numinlets" : 1,
					"numoutlets" : 2,
					"outlettype" : [ "signal", "int" ],
					"parameter_enable" : 0,
					"patching_rect" : [ 152.5, 713.0, 22.0, 140.0 ],
					"style" : ""
				}

			}
, 			{
				"box" : 				{
					"bgcolor" : [ 0.095481, 0.100396, 0.100293, 1.0 ],
					"color" : [ 0.65098, 0.666667, 0.662745, 1.0 ],
					"elementcolor" : [ 0.239216, 0.254902, 0.278431, 1.0 ],
					"id" : "obj-46",
					"maxclass" : "ezdac~",
					"numinlets" : 2,
					"numoutlets" : 0,
					"patching_rect" : [ 345.0, 999.0, 45.0, 45.0 ],
					"presentation" : 1,
					"presentation_rect" : [ 263.5, 11.0, 40.0, 40.0 ],
					"style" : ""
				}

			}
, 			{
				"box" : 				{
					"bgcolor" : [ 0.095481, 0.100396, 0.100293, 1.0 ],
					"htricolor" : [ 0.862745, 0.870588, 0.878431, 1.0 ],
					"id" : "obj-45",
					"maxclass" : "number",
					"numinlets" : 1,
					"numoutlets" : 2,
					"outlettype" : [ "", "bang" ],
					"parameter_enable" : 0,
					"patching_rect" : [ 466.0, 279.0, 50.0, 22.0 ],
					"presentation" : 1,
					"presentation_rect" : [ 78.5, 237.0, 54.0, 22.0 ],
					"style" : "",
					"textcolor" : [ 0.65098, 0.666667, 0.662745, 1.0 ],
					"tricolor" : [ 0.239216, 0.254902, 0.278431, 1.0 ]
				}

			}
, 			{
				"box" : 				{
					"bgcolor" : [ 0.095481, 0.100396, 0.100293, 1.0 ],
					"htricolor" : [ 0.862745, 0.870588, 0.878431, 1.0 ],
					"id" : "obj-43",
					"maxclass" : "number",
					"numinlets" : 1,
					"numoutlets" : 2,
					"outlettype" : [ "", "bang" ],
					"parameter_enable" : 0,
					"patching_rect" : [ 151.0, 244.0, 50.0, 22.0 ],
					"presentation" : 1,
					"presentation_rect" : [ 9.0, 191.0, 54.0, 22.0 ],
					"style" : "",
					"textcolor" : [ 0.65098, 0.666667, 0.662745, 1.0 ],
					"tricolor" : [ 0.239216, 0.254902, 0.278431, 1.0 ]
				}

			}
, 			{
				"box" : 				{
					"bgcolor" : [ 0.095481, 0.100396, 0.100293, 1.0 ],
					"bgcolor2" : [ 0.095481, 0.100396, 0.100293, 1.0 ],
					"bgfillcolor_angle" : 270.0,
					"bgfillcolor_autogradient" : 0.0,
					"bgfillcolor_color" : [ 0.290196, 0.309804, 0.301961, 1.0 ],
					"bgfillcolor_color1" : [ 0.095481, 0.100396, 0.100293, 1.0 ],
					"bgfillcolor_color2" : [ 0.095481, 0.100396, 0.100293, 1.0 ],
					"bgfillcolor_proportion" : 0.39,
					"bgfillcolor_type" : "gradient",
					"fontname" : "Arial",
					"fontsize" : 13.0,
					"gradient" : 1,
					"id" : "obj-24",
					"maxclass" : "message",
					"numinlets" : 2,
					"numoutlets" : 1,
					"outlettype" : [ "" ],
					"patching_rect" : [ 72.0, 204.0, 41.0, 23.0 ],
					"presentation" : 1,
					"presentation_rect" : [ 63.5, 139.0, 41.0, 23.0 ],
					"style" : "",
					"text" : "clear",
					"textcolor" : [ 0.65098, 0.666667, 0.662745, 1.0 ]
				}

			}
, 			{
				"box" : 				{
					"fontname" : "Arial",
					"fontsize" : 13.0,
					"id" : "obj-27",
					"maxclass" : "newobj",
					"numinlets" : 2,
					"numoutlets" : 2,
					"outlettype" : [ "signal", "bang" ],
					"patching_rect" : [ 376.0, 343.5, 63.0, 23.0 ],
					"style" : "",
					"text" : "line~ 200"
				}

			}
, 			{
				"box" : 				{
					"bgcolor" : [ 0.095481, 0.100396, 0.100293, 1.0 ],
					"fontname" : "Arial",
					"fontsize" : 13.0,
					"format" : 6,
					"htricolor" : [ 0.862745, 0.870588, 0.878431, 1.0 ],
					"id" : "obj-28",
					"maxclass" : "flonum",
					"numinlets" : 1,
					"numoutlets" : 2,
					"outlettype" : [ "", "bang" ],
					"parameter_enable" : 0,
					"patching_rect" : [ 376.0, 231.0, 54.0, 23.0 ],
					"presentation" : 1,
					"presentation_rect" : [ 78.5, 191.0, 54.0, 23.0 ],
					"style" : "",
					"textcolor" : [ 0.65098, 0.666667, 0.662745, 1.0 ],
					"tricolor" : [ 0.239216, 0.254902, 0.278431, 1.0 ]
				}

			}
, 			{
				"box" : 				{
					"fontname" : "Arial",
					"fontsize" : 13.0,
					"id" : "obj-29",
					"maxclass" : "message",
					"numinlets" : 2,
					"numoutlets" : 1,
					"outlettype" : [ "" ],
					"patching_rect" : [ 376.0, 274.0, 49.0, 23.0 ],
					"style" : "",
					"text" : "$1 500"
				}

			}
, 			{
				"box" : 				{
					"fontname" : "Arial",
					"fontsize" : 13.0,
					"id" : "obj-31",
					"maxclass" : "newobj",
					"numinlets" : 1,
					"numoutlets" : 1,
					"outlettype" : [ "signal" ],
					"patching_rect" : [ 376.0, 375.5, 80.0, 23.0 ],
					"style" : "",
					"text" : "tapout~ 200"
				}

			}
, 			{
				"box" : 				{
					"bgcolor" : [ 0.095481, 0.100396, 0.100293, 1.0 ],
					"fontname" : "Arial",
					"fontsize" : 13.0,
					"format" : 6,
					"htricolor" : [ 0.862745, 0.870588, 0.878431, 1.0 ],
					"id" : "obj-34",
					"maxclass" : "flonum",
					"numinlets" : 1,
					"numoutlets" : 2,
					"outlettype" : [ "", "bang" ],
					"parameter_enable" : 0,
					"patching_rect" : [ 69.5, 339.5, 54.0, 23.0 ],
					"presentation" : 1,
					"presentation_rect" : [ 9.0, 237.0, 54.0, 23.0 ],
					"style" : "",
					"textcolor" : [ 0.65098, 0.666667, 0.662745, 1.0 ],
					"tricolor" : [ 0.239216, 0.254902, 0.278431, 1.0 ]
				}

			}
, 			{
				"box" : 				{
					"fontname" : "Arial",
					"fontsize" : 13.0,
					"id" : "obj-35",
					"maxclass" : "newobj",
					"numinlets" : 1,
					"numoutlets" : 1,
					"outlettype" : [ "signal" ],
					"patching_rect" : [ 42.0, 375.5, 80.0, 23.0 ],
					"style" : "",
					"text" : "tapout~ 100"
				}

			}
, 			{
				"box" : 				{
					"fontname" : "Arial",
					"fontsize" : 13.0,
					"id" : "obj-36",
					"maxclass" : "newobj",
					"numinlets" : 1,
					"numoutlets" : 1,
					"outlettype" : [ "tapconnect" ],
					"patching_rect" : [ 42.0, 273.0, 79.0, 23.0 ],
					"style" : "",
					"text" : "tapin~ 1000"
				}

			}
, 			{
				"box" : 				{
					"bgcolor" : [ 0.095481, 0.100396, 0.100293, 1.0 ],
					"htricolor" : [ 0.862745, 0.870588, 0.878431, 1.0 ],
					"id" : "obj-17",
					"maxclass" : "number",
					"numinlets" : 1,
					"numoutlets" : 2,
					"outlettype" : [ "", "bang" ],
					"parameter_enable" : 0,
					"patching_rect" : [ 107.0, 482.0, 50.0, 22.0 ],
					"presentation" : 1,
					"presentation_rect" : [ 9.0, 288.0, 50.0, 22.0 ],
					"style" : "",
					"textcolor" : [ 0.65098, 0.666667, 0.662745, 1.0 ],
					"tricolor" : [ 0.239216, 0.254902, 0.278431, 1.0 ]
				}

			}
, 			{
				"box" : 				{
					"id" : "obj-15",
					"maxclass" : "newobj",
					"numinlets" : 2,
					"numoutlets" : 1,
					"outlettype" : [ "signal" ],
					"patching_rect" : [ 42.0, 515.0, 47.0, 22.0 ],
					"style" : "",
					"text" : "cverb~"
				}

			}
, 			{
				"box" : 				{
					"bgcolor" : [ 0.095481, 0.100396, 0.100293, 1.0 ],
					"id" : "obj-14",
					"knobcolor" : [ 0.65098, 0.666667, 0.662745, 1.0 ],
					"maxclass" : "gain~",
					"numinlets" : 1,
					"numoutlets" : 2,
					"outlettype" : [ "signal", "int" ],
					"parameter_enable" : 0,
					"patching_rect" : [ 42.0, 160.0, 191.0, 19.0 ],
					"presentation" : 1,
					"presentation_rect" : [ 9.0, 118.0, 191.0, 19.0 ],
					"stripecolor" : [ 0.239216, 0.254902, 0.278431, 1.0 ],
					"style" : ""
				}

			}
, 			{
				"box" : 				{
					"fontname" : "Arial",
					"fontsize" : 11.595187,
					"hidden" : 1,
					"id" : "obj-19",
					"maxclass" : "message",
					"numinlets" : 2,
					"numoutlets" : 1,
					"outlettype" : [ "" ],
					"patching_rect" : [ 484.5, 566.0, 22.0, 21.0 ],
					"style" : "",
					"text" : "24"
				}

			}
, 			{
				"box" : 				{
					"fontname" : "Arial",
					"fontsize" : 11.595187,
					"hidden" : 1,
					"id" : "obj-20",
					"maxclass" : "message",
					"numinlets" : 2,
					"numoutlets" : 1,
					"outlettype" : [ "" ],
					"patching_rect" : [ 451.5, 564.0, 32.5, 21.0 ],
					"style" : "",
					"text" : "1."
				}

			}
, 			{
				"box" : 				{
					"fontname" : "Arial",
					"fontsize" : 11.595187,
					"hidden" : 1,
					"id" : "obj-21",
					"maxclass" : "newobj",
					"numinlets" : 1,
					"numoutlets" : 1,
					"outlettype" : [ "bang" ],
					"patching_rect" : [ 451.5, 539.0, 58.0, 21.0 ],
					"style" : "",
					"text" : "loadbang"
				}

			}
, 			{
				"box" : 				{
					"bgcolor" : [ 0.095481, 0.100396, 0.100293, 1.0 ],
					"cantchange" : 1,
					"fontname" : "Arial",
					"fontsize" : 13.0,
					"htricolor" : [ 0.862745, 0.870588, 0.878431, 1.0 ],
					"id" : "obj-23",
					"maxclass" : "number",
					"numinlets" : 1,
					"numoutlets" : 2,
					"outlettype" : [ "", "bang" ],
					"parameter_enable" : 0,
					"patching_rect" : [ 295.5, 564.0, 54.0, 23.0 ],
					"presentation" : 1,
					"presentation_rect" : [ 9.0, 447.0, 54.0, 23.0 ],
					"style" : "",
					"textcolor" : [ 0.65098, 0.666667, 0.662745, 1.0 ],
					"triangle" : 0,
					"tricolor" : [ 0.239216, 0.254902, 0.278431, 1.0 ],
					"triscale" : 0.9
				}

			}
, 			{
				"box" : 				{
					"bgcolor" : [ 0.095481, 0.100396, 0.100293, 1.0 ],
					"elementcolor" : [ 0.239216, 0.254902, 0.278431, 1.0 ],
					"id" : "obj-26",
					"knobcolor" : [ 0.65098, 0.666667, 0.662745, 1.0 ],
					"maxclass" : "slider",
					"min" : 1.0,
					"numinlets" : 1,
					"numoutlets" : 1,
					"orientation" : 1,
					"outlettype" : [ "" ],
					"parameter_enable" : 0,
					"patching_rect" : [ 295.5, 539.0, 144.0, 18.0 ],
					"presentation" : 1,
					"presentation_rect" : [ 9.0, 427.0, 144.0, 18.0 ],
					"size" : 24.0,
					"style" : ""
				}

			}
, 			{
				"box" : 				{
					"bgcolor" : [ 0.095481, 0.100396, 0.100293, 1.0 ],
					"elementcolor" : [ 0.239216, 0.254902, 0.278431, 1.0 ],
					"floatoutput" : 1,
					"id" : "obj-30",
					"knobcolor" : [ 0.65098, 0.666667, 0.662745, 1.0 ],
					"maxclass" : "slider",
					"numinlets" : 1,
					"numoutlets" : 1,
					"orientation" : 1,
					"outlettype" : [ "" ],
					"parameter_enable" : 0,
					"patching_rect" : [ 94.5, 539.0, 144.0, 18.0 ],
					"presentation" : 1,
					"presentation_rect" : [ 9.0, 360.0, 144.0, 18.0 ],
					"size" : 1.0,
					"style" : ""
				}

			}
, 			{
				"box" : 				{
					"bgcolor" : [ 0.095481, 0.100396, 0.100293, 1.0 ],
					"cantchange" : 1,
					"fontname" : "Arial",
					"fontsize" : 13.0,
					"format" : 6,
					"htricolor" : [ 0.862745, 0.870588, 0.878431, 1.0 ],
					"id" : "obj-32",
					"maxclass" : "flonum",
					"numinlets" : 1,
					"numoutlets" : 2,
					"outlettype" : [ "", "bang" ],
					"parameter_enable" : 0,
					"patching_rect" : [ 94.5, 564.0, 56.0, 23.0 ],
					"presentation" : 1,
					"presentation_rect" : [ 9.0, 380.0, 56.0, 23.0 ],
					"style" : "",
					"textcolor" : [ 0.65098, 0.666667, 0.662745, 1.0 ],
					"triangle" : 0,
					"tricolor" : [ 0.239216, 0.254902, 0.278431, 1.0 ],
					"triscale" : 0.9
				}

			}
, 			{
				"box" : 				{
					"fontname" : "Arial",
					"fontsize" : 13.0,
					"id" : "obj-33",
					"maxclass" : "newobj",
					"numinlets" : 3,
					"numoutlets" : 1,
					"outlettype" : [ "signal" ],
					"patching_rect" : [ 42.0, 602.0, 67.0, 23.0 ],
					"style" : "",
					"text" : "degrade~"
				}

			}
, 			{
				"box" : 				{
					"activedialcolor" : [ 1.0, 1.0, 1.0, 1.0 ],
					"activeneedlecolor" : [ 0.65098, 0.666667, 0.662745, 1.0 ],
					"id" : "obj-12",
					"maxclass" : "live.dial",
					"numinlets" : 1,
					"numoutlets" : 2,
					"outlettype" : [ "", "float" ],
					"parameter_enable" : 1,
					"patching_rect" : [ 55.5, 647.5, 44.0, 47.0 ],
					"presentation" : 1,
					"presentation_rect" : [ 9.0, 498.0, 44.0, 47.0 ],
					"saved_attribute_attributes" : 					{
						"valueof" : 						{
							"parameter_longname" : "live.dial",
							"parameter_shortname" : "Pan",
							"parameter_type" : 0,
							"parameter_initial_enable" : 1,
							"parameter_initial" : [ 64.0 ],
							"parameter_unitstyle" : 0
						}

					}
,
					"textcolor" : [ 0.65098, 0.666667, 0.662745, 1.0 ],
					"varname" : "live.dial"
				}

			}
, 			{
				"box" : 				{
					"id" : "obj-10",
					"maxclass" : "newobj",
					"numinlets" : 4,
					"numoutlets" : 2,
					"outlettype" : [ "signal", "signal" ],
					"patching_rect" : [ 124.0, 647.5, 50.5, 22.0 ],
					"style" : "",
					"text" : "pan2"
				}

			}
, 			{
				"box" : 				{
					"bgcolor" : [ 0.095481, 0.100396, 0.100293, 1.0 ],
					"id" : "obj-9",
					"maxclass" : "meter~",
					"numinlets" : 1,
					"numoutlets" : 1,
					"offcolor" : [ 0.239216, 0.254902, 0.278431, 1.0 ],
					"oncolor" : [ 0.65098, 0.666667, 0.662745, 1.0 ],
					"outlettype" : [ "float" ],
					"patching_rect" : [ 91.0, 713.0, 19.0, 140.0 ],
					"presentation" : 1,
					"presentation_rect" : [ 58.0, 547.0, 19.0, 140.0 ],
					"style" : ""
				}

			}
, 			{
				"box" : 				{
					"id" : "obj-8",
					"maxclass" : "newobj",
					"numinlets" : 1,
					"numoutlets" : 1,
					"outlettype" : [ "signal" ],
					"patching_rect" : [ 42.0, 121.0, 47.0, 22.0 ],
					"style" : "",
					"text" : "adc~ 1"
				}

			}
, 			{
				"box" : 				{
					"bgcolor" : [ 0.095481, 0.100396, 0.100293, 1.0 ],
					"id" : "obj-7",
					"maxclass" : "meter~",
					"numinlets" : 1,
					"numoutlets" : 1,
					"offcolor" : [ 0.239216, 0.254902, 0.278431, 1.0 ],
					"oncolor" : [ 0.65098, 0.666667, 0.662745, 1.0 ],
					"outlettype" : [ "float" ],
					"patching_rect" : [ 68.0, 713.0, 19.0, 140.0 ],
					"presentation" : 1,
					"presentation_rect" : [ 35.0, 547.0, 19.0, 140.0 ],
					"style" : ""
				}

			}
, 			{
				"box" : 				{
					"fontsize" : 30.0,
					"id" : "obj-4",
					"maxclass" : "comment",
					"numinlets" : 1,
					"numoutlets" : 0,
					"patching_rect" : [ 9.0, 11.0, 358.0, 40.0 ],
					"presentation" : 1,
					"presentation_rect" : [ 9.0, 11.0, 255.5, 40.0 ],
					"style" : "",
					"text" : "Breathe_Easy_v.1",
					"textcolor" : [ 0.65098, 0.666667, 0.662745, 1.0 ]
				}

			}
, 			{
				"box" : 				{
					"bgcolor" : [ 0.095481, 0.100396, 0.100293, 1.0 ],
					"id" : "obj-1",
					"knobcolor" : [ 0.65098, 0.666667, 0.662745, 1.0 ],
					"maxclass" : "gain~",
					"numinlets" : 1,
					"numoutlets" : 2,
					"outlettype" : [ "signal", "int" ],
					"parameter_enable" : 0,
					"patching_rect" : [ 42.0, 713.0, 22.0, 140.0 ],
					"presentation" : 1,
					"presentation_rect" : [ 9.0, 547.0, 22.0, 140.0 ],
					"stripecolor" : [ 0.239216, 0.254902, 0.278431, 1.0 ],
					"style" : ""
				}

			}
 ],
		"lines" : [ 			{
				"patchline" : 				{
					"destination" : [ "obj-47", 0 ],
					"disabled" : 0,
					"hidden" : 0,
					"order" : 1,
					"source" : [ "obj-1", 1 ]
				}

			}
, 			{
				"patchline" : 				{
					"destination" : [ "obj-48", 0 ],
					"disabled" : 0,
					"hidden" : 0,
					"order" : 0,
					"source" : [ "obj-1", 1 ]
				}

			}
, 			{
				"patchline" : 				{
					"destination" : [ "obj-47", 0 ],
					"disabled" : 0,
					"hidden" : 0,
					"source" : [ "obj-10", 0 ]
				}

			}
, 			{
				"patchline" : 				{
					"destination" : [ "obj-48", 0 ],
					"disabled" : 0,
					"hidden" : 0,
					"source" : [ "obj-10", 1 ]
				}

			}
, 			{
				"patchline" : 				{
					"destination" : [ "obj-101", 0 ],
					"disabled" : 0,
					"hidden" : 0,
					"source" : [ "obj-100", 0 ]
				}

			}
, 			{
				"patchline" : 				{
					"destination" : [ "obj-102", 1 ],
					"disabled" : 0,
					"hidden" : 0,
					"midpoints" : [ 606.0, 595.5, 577.5, 595.5 ],
					"source" : [ "obj-101", 0 ]
				}

			}
, 			{
				"patchline" : 				{
					"destination" : [ "obj-104", 0 ],
					"disabled" : 0,
					"hidden" : 0,
					"source" : [ "obj-102", 0 ]
				}

			}
, 			{
				"patchline" : 				{
					"destination" : [ "obj-104", 2 ],
					"disabled" : 0,
					"hidden" : 0,
					"source" : [ "obj-103", 0 ]
				}

			}
, 			{
				"patchline" : 				{
					"destination" : [ "obj-79", 0 ],
					"disabled" : 0,
					"hidden" : 0,
					"source" : [ "obj-104", 1 ]
				}

			}
, 			{
				"patchline" : 				{
					"destination" : [ "obj-80", 0 ],
					"disabled" : 0,
					"hidden" : 0,
					"source" : [ "obj-104", 0 ]
				}

			}
, 			{
				"patchline" : 				{
					"destination" : [ "obj-94", 0 ],
					"disabled" : 0,
					"hidden" : 0,
					"source" : [ "obj-106", 0 ]
				}

			}
, 			{
				"patchline" : 				{
					"destination" : [ "obj-79", 0 ],
					"disabled" : 0,
					"hidden" : 0,
					"order" : 0,
					"source" : [ "obj-108", 1 ]
				}

			}
, 			{
				"patchline" : 				{
					"destination" : [ "obj-80", 0 ],
					"disabled" : 0,
					"hidden" : 0,
					"order" : 1,
					"source" : [ "obj-108", 1 ]
				}

			}
, 			{
				"patchline" : 				{
					"destination" : [ "obj-10", 2 ],
					"disabled" : 0,
					"hidden" : 0,
					"source" : [ "obj-12", 0 ]
				}

			}
, 			{
				"patchline" : 				{
					"destination" : [ "obj-145", 0 ],
					"disabled" : 0,
					"hidden" : 0,
					"order" : 0,
					"source" : [ "obj-120", 0 ]
				}

			}
, 			{
				"patchline" : 				{
					"destination" : [ "obj-150", 0 ],
					"disabled" : 0,
					"hidden" : 0,
					"order" : 1,
					"source" : [ "obj-120", 0 ]
				}

			}
, 			{
				"patchline" : 				{
					"destination" : [ "obj-147", 0 ],
					"disabled" : 0,
					"hidden" : 0,
					"order" : 0,
					"source" : [ "obj-121", 0 ]
				}

			}
, 			{
				"patchline" : 				{
					"destination" : [ "obj-151", 0 ],
					"disabled" : 0,
					"hidden" : 0,
					"order" : 1,
					"source" : [ "obj-121", 0 ]
				}

			}
, 			{
				"patchline" : 				{
					"destination" : [ "obj-125", 0 ],
					"disabled" : 0,
					"hidden" : 0,
					"source" : [ "obj-122", 0 ]
				}

			}
, 			{
				"patchline" : 				{
					"destination" : [ "obj-131", 0 ],
					"disabled" : 0,
					"hidden" : 0,
					"source" : [ "obj-123", 0 ]
				}

			}
, 			{
				"patchline" : 				{
					"destination" : [ "obj-131", 0 ],
					"disabled" : 0,
					"hidden" : 0,
					"source" : [ "obj-124", 0 ]
				}

			}
, 			{
				"patchline" : 				{
					"destination" : [ "obj-128", 0 ],
					"disabled" : 0,
					"hidden" : 0,
					"source" : [ "obj-125", 0 ]
				}

			}
, 			{
				"patchline" : 				{
					"destination" : [ "obj-127", 0 ],
					"disabled" : 0,
					"hidden" : 0,
					"source" : [ "obj-126", 0 ]
				}

			}
, 			{
				"patchline" : 				{
					"destination" : [ "obj-125", 0 ],
					"disabled" : 0,
					"hidden" : 0,
					"source" : [ "obj-127", 0 ]
				}

			}
, 			{
				"patchline" : 				{
					"destination" : [ "obj-133", 0 ],
					"disabled" : 0,
					"hidden" : 0,
					"source" : [ "obj-128", 0 ]
				}

			}
, 			{
				"patchline" : 				{
					"destination" : [ "obj-130", 0 ],
					"disabled" : 0,
					"hidden" : 0,
					"source" : [ "obj-129", 0 ]
				}

			}
, 			{
				"patchline" : 				{
					"destination" : [ "obj-11", 0 ],
					"disabled" : 0,
					"hidden" : 0,
					"source" : [ "obj-13", 0 ]
				}

			}
, 			{
				"patchline" : 				{
					"destination" : [ "obj-133", 0 ],
					"disabled" : 0,
					"hidden" : 0,
					"source" : [ "obj-130", 0 ]
				}

			}
, 			{
				"patchline" : 				{
					"destination" : [ "obj-128", 0 ],
					"disabled" : 0,
					"hidden" : 0,
					"order" : 0,
					"source" : [ "obj-131", 0 ]
				}

			}
, 			{
				"patchline" : 				{
					"destination" : [ "obj-130", 0 ],
					"disabled" : 0,
					"hidden" : 0,
					"order" : 1,
					"source" : [ "obj-131", 0 ]
				}

			}
, 			{
				"patchline" : 				{
					"destination" : [ "obj-133", 1 ],
					"disabled" : 0,
					"hidden" : 0,
					"source" : [ "obj-132", 0 ]
				}

			}
, 			{
				"patchline" : 				{
					"destination" : [ "obj-142", 0 ],
					"disabled" : 0,
					"hidden" : 0,
					"source" : [ "obj-133", 0 ]
				}

			}
, 			{
				"patchline" : 				{
					"destination" : [ "obj-131", 0 ],
					"disabled" : 0,
					"hidden" : 0,
					"source" : [ "obj-134", 0 ]
				}

			}
, 			{
				"patchline" : 				{
					"destination" : [ "obj-139", 0 ],
					"disabled" : 0,
					"hidden" : 1,
					"midpoints" : [ 1482.0, 529.0, 1293.0, 529.0 ],
					"source" : [ "obj-135", 0 ]
				}

			}
, 			{
				"patchline" : 				{
					"destination" : [ "obj-140", 0 ],
					"disabled" : 0,
					"hidden" : 1,
					"midpoints" : [ 1449.0, 524.0, 1092.0, 524.0 ],
					"source" : [ "obj-136", 0 ]
				}

			}
, 			{
				"patchline" : 				{
					"destination" : [ "obj-135", 0 ],
					"disabled" : 0,
					"hidden" : 1,
					"order" : 0,
					"source" : [ "obj-137", 0 ]
				}

			}
, 			{
				"patchline" : 				{
					"destination" : [ "obj-136", 0 ],
					"disabled" : 0,
					"hidden" : 1,
					"order" : 1,
					"source" : [ "obj-137", 0 ]
				}

			}
, 			{
				"patchline" : 				{
					"destination" : [ "obj-142", 2 ],
					"disabled" : 0,
					"hidden" : 0,
					"midpoints" : [ 1293.0, 595.0, 1087.5, 595.0 ],
					"source" : [ "obj-138", 0 ]
				}

			}
, 			{
				"patchline" : 				{
					"destination" : [ "obj-138", 0 ],
					"disabled" : 0,
					"hidden" : 0,
					"source" : [ "obj-139", 0 ]
				}

			}
, 			{
				"patchline" : 				{
					"destination" : [ "obj-36", 0 ],
					"disabled" : 0,
					"hidden" : 0,
					"source" : [ "obj-14", 0 ]
				}

			}
, 			{
				"patchline" : 				{
					"destination" : [ "obj-141", 0 ],
					"disabled" : 0,
					"hidden" : 0,
					"source" : [ "obj-140", 0 ]
				}

			}
, 			{
				"patchline" : 				{
					"destination" : [ "obj-142", 1 ],
					"disabled" : 0,
					"hidden" : 0,
					"midpoints" : [ 1092.0, 595.5, 1063.5, 595.5 ],
					"source" : [ "obj-141", 0 ]
				}

			}
, 			{
				"patchline" : 				{
					"destination" : [ "obj-144", 0 ],
					"disabled" : 0,
					"hidden" : 0,
					"source" : [ "obj-142", 0 ]
				}

			}
, 			{
				"patchline" : 				{
					"destination" : [ "obj-144", 2 ],
					"disabled" : 0,
					"hidden" : 0,
					"source" : [ "obj-143", 0 ]
				}

			}
, 			{
				"patchline" : 				{
					"destination" : [ "obj-120", 0 ],
					"disabled" : 0,
					"hidden" : 0,
					"source" : [ "obj-144", 1 ]
				}

			}
, 			{
				"patchline" : 				{
					"destination" : [ "obj-121", 0 ],
					"disabled" : 0,
					"hidden" : 0,
					"source" : [ "obj-144", 0 ]
				}

			}
, 			{
				"patchline" : 				{
					"destination" : [ "obj-134", 0 ],
					"disabled" : 0,
					"hidden" : 0,
					"source" : [ "obj-146", 0 ]
				}

			}
, 			{
				"patchline" : 				{
					"destination" : [ "obj-120", 0 ],
					"disabled" : 0,
					"hidden" : 0,
					"order" : 0,
					"source" : [ "obj-148", 1 ]
				}

			}
, 			{
				"patchline" : 				{
					"destination" : [ "obj-121", 0 ],
					"disabled" : 0,
					"hidden" : 0,
					"order" : 1,
					"source" : [ "obj-148", 1 ]
				}

			}
, 			{
				"patchline" : 				{
					"destination" : [ "obj-33", 0 ],
					"disabled" : 0,
					"hidden" : 0,
					"source" : [ "obj-15", 0 ]
				}

			}
, 			{
				"patchline" : 				{
					"destination" : [ "obj-25", 1 ],
					"disabled" : 0,
					"hidden" : 0,
					"order" : 0,
					"source" : [ "obj-150", 0 ]
				}

			}
, 			{
				"patchline" : 				{
					"destination" : [ "obj-46", 1 ],
					"disabled" : 0,
					"hidden" : 0,
					"order" : 2,
					"source" : [ "obj-150", 0 ]
				}

			}
, 			{
				"patchline" : 				{
					"destination" : [ "obj-54", 1 ],
					"disabled" : 0,
					"hidden" : 0,
					"order" : 1,
					"source" : [ "obj-150", 0 ]
				}

			}
, 			{
				"patchline" : 				{
					"destination" : [ "obj-25", 0 ],
					"disabled" : 0,
					"hidden" : 0,
					"order" : 0,
					"source" : [ "obj-151", 0 ]
				}

			}
, 			{
				"patchline" : 				{
					"destination" : [ "obj-46", 0 ],
					"disabled" : 0,
					"hidden" : 0,
					"order" : 2,
					"source" : [ "obj-151", 0 ]
				}

			}
, 			{
				"patchline" : 				{
					"destination" : [ "obj-54", 0 ],
					"disabled" : 0,
					"hidden" : 0,
					"order" : 1,
					"source" : [ "obj-151", 0 ]
				}

			}
, 			{
				"patchline" : 				{
					"destination" : [ "obj-150", 0 ],
					"disabled" : 0,
					"hidden" : 0,
					"order" : 0,
					"source" : [ "obj-152", 1 ]
				}

			}
, 			{
				"patchline" : 				{
					"destination" : [ "obj-151", 0 ],
					"disabled" : 0,
					"hidden" : 0,
					"order" : 1,
					"source" : [ "obj-152", 1 ]
				}

			}
, 			{
				"patchline" : 				{
					"destination" : [ "obj-158", 0 ],
					"disabled" : 0,
					"hidden" : 0,
					"source" : [ "obj-153", 0 ]
				}

			}
, 			{
				"patchline" : 				{
					"destination" : [ "obj-153", 0 ],
					"disabled" : 0,
					"hidden" : 0,
					"order" : 1,
					"source" : [ "obj-155", 0 ]
				}

			}
, 			{
				"patchline" : 				{
					"destination" : [ "obj-160", 0 ],
					"disabled" : 0,
					"hidden" : 0,
					"order" : 0,
					"source" : [ "obj-155", 0 ]
				}

			}
, 			{
				"patchline" : 				{
					"destination" : [ "obj-153", 1 ],
					"disabled" : 0,
					"hidden" : 0,
					"source" : [ "obj-157", 0 ]
				}

			}
, 			{
				"patchline" : 				{
					"destination" : [ "obj-12", 0 ],
					"disabled" : 0,
					"hidden" : 0,
					"source" : [ "obj-158", 0 ]
				}

			}
, 			{
				"patchline" : 				{
					"destination" : [ "obj-158", 1 ],
					"disabled" : 0,
					"hidden" : 0,
					"source" : [ "obj-160", 0 ]
				}

			}
, 			{
				"patchline" : 				{
					"destination" : [ "obj-162", 1 ],
					"disabled" : 0,
					"hidden" : 0,
					"source" : [ "obj-161", 0 ]
				}

			}
, 			{
				"patchline" : 				{
					"destination" : [ "obj-103", 0 ],
					"disabled" : 0,
					"hidden" : 0,
					"source" : [ "obj-162", 0 ]
				}

			}
, 			{
				"patchline" : 				{
					"destination" : [ "obj-165", 1 ],
					"disabled" : 0,
					"hidden" : 0,
					"source" : [ "obj-163", 0 ]
				}

			}
, 			{
				"patchline" : 				{
					"destination" : [ "obj-161", 0 ],
					"disabled" : 0,
					"hidden" : 0,
					"order" : 0,
					"source" : [ "obj-164", 0 ]
				}

			}
, 			{
				"patchline" : 				{
					"destination" : [ "obj-165", 0 ],
					"disabled" : 0,
					"hidden" : 0,
					"order" : 1,
					"source" : [ "obj-164", 0 ]
				}

			}
, 			{
				"patchline" : 				{
					"destination" : [ "obj-162", 0 ],
					"disabled" : 0,
					"hidden" : 0,
					"source" : [ "obj-165", 0 ]
				}

			}
, 			{
				"patchline" : 				{
					"destination" : [ "obj-15", 1 ],
					"disabled" : 0,
					"hidden" : 0,
					"source" : [ "obj-17", 0 ]
				}

			}
, 			{
				"patchline" : 				{
					"destination" : [ "obj-172", 1 ],
					"disabled" : 0,
					"hidden" : 0,
					"source" : [ "obj-171", 0 ]
				}

			}
, 			{
				"patchline" : 				{
					"destination" : [ "obj-143", 0 ],
					"disabled" : 0,
					"hidden" : 0,
					"source" : [ "obj-172", 0 ]
				}

			}
, 			{
				"patchline" : 				{
					"destination" : [ "obj-175", 1 ],
					"disabled" : 0,
					"hidden" : 0,
					"source" : [ "obj-173", 0 ]
				}

			}
, 			{
				"patchline" : 				{
					"destination" : [ "obj-171", 0 ],
					"disabled" : 0,
					"hidden" : 0,
					"order" : 0,
					"source" : [ "obj-174", 0 ]
				}

			}
, 			{
				"patchline" : 				{
					"destination" : [ "obj-175", 0 ],
					"disabled" : 0,
					"hidden" : 0,
					"order" : 1,
					"source" : [ "obj-174", 0 ]
				}

			}
, 			{
				"patchline" : 				{
					"destination" : [ "obj-172", 0 ],
					"disabled" : 0,
					"hidden" : 0,
					"source" : [ "obj-175", 0 ]
				}

			}
, 			{
				"patchline" : 				{
					"destination" : [ "obj-26", 0 ],
					"disabled" : 0,
					"hidden" : 1,
					"midpoints" : [ 494.0, 529.0, 305.0, 529.0 ],
					"source" : [ "obj-19", 0 ]
				}

			}
, 			{
				"patchline" : 				{
					"destination" : [ "obj-13", 0 ],
					"disabled" : 0,
					"hidden" : 0,
					"source" : [ "obj-2", 0 ]
				}

			}
, 			{
				"patchline" : 				{
					"destination" : [ "obj-30", 0 ],
					"disabled" : 0,
					"hidden" : 1,
					"midpoints" : [ 461.0, 524.0, 104.0, 524.0 ],
					"source" : [ "obj-20", 0 ]
				}

			}
, 			{
				"patchline" : 				{
					"destination" : [ "obj-19", 0 ],
					"disabled" : 0,
					"hidden" : 1,
					"order" : 0,
					"source" : [ "obj-21", 0 ]
				}

			}
, 			{
				"patchline" : 				{
					"destination" : [ "obj-20", 0 ],
					"disabled" : 0,
					"hidden" : 1,
					"order" : 1,
					"source" : [ "obj-21", 0 ]
				}

			}
, 			{
				"patchline" : 				{
					"destination" : [ "obj-25", 0 ],
					"disabled" : 0,
					"hidden" : 0,
					"source" : [ "obj-22", 0 ]
				}

			}
, 			{
				"patchline" : 				{
					"destination" : [ "obj-33", 2 ],
					"disabled" : 0,
					"hidden" : 0,
					"midpoints" : [ 305.0, 595.0, 99.5, 595.0 ],
					"source" : [ "obj-23", 0 ]
				}

			}
, 			{
				"patchline" : 				{
					"destination" : [ "obj-36", 0 ],
					"disabled" : 0,
					"hidden" : 0,
					"source" : [ "obj-24", 0 ]
				}

			}
, 			{
				"patchline" : 				{
					"destination" : [ "obj-44", 0 ],
					"disabled" : 0,
					"hidden" : 0,
					"source" : [ "obj-25", 0 ]
				}

			}
, 			{
				"patchline" : 				{
					"destination" : [ "obj-23", 0 ],
					"disabled" : 0,
					"hidden" : 0,
					"source" : [ "obj-26", 0 ]
				}

			}
, 			{
				"patchline" : 				{
					"destination" : [ "obj-31", 0 ],
					"disabled" : 0,
					"hidden" : 0,
					"source" : [ "obj-27", 0 ]
				}

			}
, 			{
				"patchline" : 				{
					"destination" : [ "obj-29", 0 ],
					"disabled" : 0,
					"hidden" : 0,
					"source" : [ "obj-28", 0 ]
				}

			}
, 			{
				"patchline" : 				{
					"destination" : [ "obj-27", 0 ],
					"disabled" : 0,
					"hidden" : 0,
					"source" : [ "obj-29", 0 ]
				}

			}
, 			{
				"patchline" : 				{
					"destination" : [ "obj-32", 0 ],
					"disabled" : 0,
					"hidden" : 0,
					"source" : [ "obj-30", 0 ]
				}

			}
, 			{
				"patchline" : 				{
					"destination" : [ "obj-15", 0 ],
					"disabled" : 0,
					"hidden" : 0,
					"source" : [ "obj-31", 0 ]
				}

			}
, 			{
				"patchline" : 				{
					"destination" : [ "obj-33", 1 ],
					"disabled" : 0,
					"hidden" : 0,
					"midpoints" : [ 104.0, 595.5, 75.5, 595.5 ],
					"source" : [ "obj-32", 0 ]
				}

			}
, 			{
				"patchline" : 				{
					"destination" : [ "obj-10", 0 ],
					"disabled" : 0,
					"hidden" : 0,
					"source" : [ "obj-33", 0 ]
				}

			}
, 			{
				"patchline" : 				{
					"destination" : [ "obj-35", 0 ],
					"disabled" : 0,
					"hidden" : 0,
					"source" : [ "obj-34", 0 ]
				}

			}
, 			{
				"patchline" : 				{
					"destination" : [ "obj-15", 0 ],
					"disabled" : 0,
					"hidden" : 0,
					"source" : [ "obj-35", 0 ]
				}

			}
, 			{
				"patchline" : 				{
					"destination" : [ "obj-31", 0 ],
					"disabled" : 0,
					"hidden" : 0,
					"order" : 0,
					"source" : [ "obj-36", 0 ]
				}

			}
, 			{
				"patchline" : 				{
					"destination" : [ "obj-35", 0 ],
					"disabled" : 0,
					"hidden" : 0,
					"order" : 1,
					"source" : [ "obj-36", 0 ]
				}

			}
, 			{
				"patchline" : 				{
					"destination" : [ "obj-22", 0 ],
					"disabled" : 0,
					"hidden" : 0,
					"order" : 0,
					"source" : [ "obj-37", 0 ]
				}

			}
, 			{
				"patchline" : 				{
					"destination" : [ "obj-25", 0 ],
					"disabled" : 0,
					"hidden" : 0,
					"order" : 1,
					"source" : [ "obj-37", 0 ]
				}

			}
, 			{
				"patchline" : 				{
					"destination" : [ "obj-36", 0 ],
					"disabled" : 0,
					"hidden" : 0,
					"source" : [ "obj-43", 0 ]
				}

			}
, 			{
				"patchline" : 				{
					"destination" : [ "obj-27", 0 ],
					"disabled" : 0,
					"hidden" : 0,
					"source" : [ "obj-45", 0 ]
				}

			}
, 			{
				"patchline" : 				{
					"destination" : [ "obj-151", 0 ],
					"disabled" : 0,
					"hidden" : 0,
					"order" : 0,
					"source" : [ "obj-47", 0 ]
				}

			}
, 			{
				"patchline" : 				{
					"destination" : [ "obj-7", 0 ],
					"disabled" : 0,
					"hidden" : 0,
					"order" : 1,
					"source" : [ "obj-47", 0 ]
				}

			}
, 			{
				"patchline" : 				{
					"destination" : [ "obj-150", 0 ],
					"disabled" : 0,
					"hidden" : 0,
					"order" : 0,
					"source" : [ "obj-48", 0 ]
				}

			}
, 			{
				"patchline" : 				{
					"destination" : [ "obj-9", 0 ],
					"disabled" : 0,
					"hidden" : 0,
					"order" : 1,
					"source" : [ "obj-48", 0 ]
				}

			}
, 			{
				"patchline" : 				{
					"destination" : [ "obj-2", 0 ],
					"disabled" : 0,
					"hidden" : 0,
					"source" : [ "obj-5", 0 ]
				}

			}
, 			{
				"patchline" : 				{
					"destination" : [ "obj-105", 0 ],
					"disabled" : 0,
					"hidden" : 0,
					"order" : 0,
					"source" : [ "obj-79", 0 ]
				}

			}
, 			{
				"patchline" : 				{
					"destination" : [ "obj-150", 0 ],
					"disabled" : 0,
					"hidden" : 0,
					"order" : 1,
					"source" : [ "obj-79", 0 ]
				}

			}
, 			{
				"patchline" : 				{
					"destination" : [ "obj-14", 0 ],
					"disabled" : 0,
					"hidden" : 0,
					"source" : [ "obj-8", 0 ]
				}

			}
, 			{
				"patchline" : 				{
					"destination" : [ "obj-107", 0 ],
					"disabled" : 0,
					"hidden" : 0,
					"order" : 0,
					"source" : [ "obj-80", 0 ]
				}

			}
, 			{
				"patchline" : 				{
					"destination" : [ "obj-151", 0 ],
					"disabled" : 0,
					"hidden" : 0,
					"order" : 1,
					"source" : [ "obj-80", 0 ]
				}

			}
, 			{
				"patchline" : 				{
					"destination" : [ "obj-85", 0 ],
					"disabled" : 0,
					"hidden" : 0,
					"source" : [ "obj-82", 0 ]
				}

			}
, 			{
				"patchline" : 				{
					"destination" : [ "obj-91", 0 ],
					"disabled" : 0,
					"hidden" : 0,
					"source" : [ "obj-83", 0 ]
				}

			}
, 			{
				"patchline" : 				{
					"destination" : [ "obj-91", 0 ],
					"disabled" : 0,
					"hidden" : 0,
					"source" : [ "obj-84", 0 ]
				}

			}
, 			{
				"patchline" : 				{
					"destination" : [ "obj-88", 0 ],
					"disabled" : 0,
					"hidden" : 0,
					"source" : [ "obj-85", 0 ]
				}

			}
, 			{
				"patchline" : 				{
					"destination" : [ "obj-87", 0 ],
					"disabled" : 0,
					"hidden" : 0,
					"source" : [ "obj-86", 0 ]
				}

			}
, 			{
				"patchline" : 				{
					"destination" : [ "obj-85", 0 ],
					"disabled" : 0,
					"hidden" : 0,
					"source" : [ "obj-87", 0 ]
				}

			}
, 			{
				"patchline" : 				{
					"destination" : [ "obj-93", 0 ],
					"disabled" : 0,
					"hidden" : 0,
					"source" : [ "obj-88", 0 ]
				}

			}
, 			{
				"patchline" : 				{
					"destination" : [ "obj-90", 0 ],
					"disabled" : 0,
					"hidden" : 0,
					"source" : [ "obj-89", 0 ]
				}

			}
, 			{
				"patchline" : 				{
					"destination" : [ "obj-93", 0 ],
					"disabled" : 0,
					"hidden" : 0,
					"source" : [ "obj-90", 0 ]
				}

			}
, 			{
				"patchline" : 				{
					"destination" : [ "obj-88", 0 ],
					"disabled" : 0,
					"hidden" : 0,
					"order" : 0,
					"source" : [ "obj-91", 0 ]
				}

			}
, 			{
				"patchline" : 				{
					"destination" : [ "obj-90", 0 ],
					"disabled" : 0,
					"hidden" : 0,
					"order" : 1,
					"source" : [ "obj-91", 0 ]
				}

			}
, 			{
				"patchline" : 				{
					"destination" : [ "obj-93", 1 ],
					"disabled" : 0,
					"hidden" : 0,
					"source" : [ "obj-92", 0 ]
				}

			}
, 			{
				"patchline" : 				{
					"destination" : [ "obj-102", 0 ],
					"disabled" : 0,
					"hidden" : 0,
					"source" : [ "obj-93", 0 ]
				}

			}
, 			{
				"patchline" : 				{
					"destination" : [ "obj-91", 0 ],
					"disabled" : 0,
					"hidden" : 0,
					"source" : [ "obj-94", 0 ]
				}

			}
, 			{
				"patchline" : 				{
					"destination" : [ "obj-99", 0 ],
					"disabled" : 0,
					"hidden" : 1,
					"midpoints" : [ 996.0, 529.0, 807.0, 529.0 ],
					"source" : [ "obj-95", 0 ]
				}

			}
, 			{
				"patchline" : 				{
					"destination" : [ "obj-100", 0 ],
					"disabled" : 0,
					"hidden" : 1,
					"midpoints" : [ 963.0, 524.0, 606.0, 524.0 ],
					"source" : [ "obj-96", 0 ]
				}

			}
, 			{
				"patchline" : 				{
					"destination" : [ "obj-95", 0 ],
					"disabled" : 0,
					"hidden" : 1,
					"order" : 0,
					"source" : [ "obj-97", 0 ]
				}

			}
, 			{
				"patchline" : 				{
					"destination" : [ "obj-96", 0 ],
					"disabled" : 0,
					"hidden" : 1,
					"order" : 1,
					"source" : [ "obj-97", 0 ]
				}

			}
, 			{
				"patchline" : 				{
					"destination" : [ "obj-102", 2 ],
					"disabled" : 0,
					"hidden" : 0,
					"midpoints" : [ 807.0, 595.0, 601.5, 595.0 ],
					"source" : [ "obj-98", 0 ]
				}

			}
, 			{
				"patchline" : 				{
					"destination" : [ "obj-98", 0 ],
					"disabled" : 0,
					"hidden" : 0,
					"source" : [ "obj-99", 0 ]
				}

			}
 ],
		"parameters" : 		{
			"obj-12" : [ "live.dial", "Pan", 0 ],
			"obj-143" : [ "live.dial[2]", "Pan", 0 ],
			"obj-103" : [ "live.dial[1]", "Pan", 0 ]
		}
,
		"dependency_cache" : [ 			{
				"name" : "pan2.maxpat",
				"bootpath" : "/Users/Shared/Max 7/Examples/spatialization/panning/lib",
				"type" : "JSON",
				"implicit" : 1
			}
 ],
		"autosave" : 0
	}

}
